<?xml version="1.0" standalone="no"?>
<!DOCTYPE svg PUBLIC "-//W3C//DTD SVG 1.1//EN" "http://www.w3.org/Graphics/SVG/1.1/DTD/svg11.dtd" >
<!--
2013-9-30: Created.
-->
<svg>
<metadata>
Created by iconfont
</metadata>
<defs>

<font id="iconfont" horiz-adv-x="1024" >
  <font-face
    font-family="iconfont"
    font-weight="500"
    font-stretch="normal"
    units-per-em="1024"
    ascent="896"
    descent="-128"
  />
    <missing-glyph />
    
    <glyph glyph-name="x" unicode="x" horiz-adv-x="1001"
d="M281 543q-27 -1 -53 -1h-83q-18 0 -36.5 -6t-32.5 -18.5t-23 -32t-9 -45.5v-76h912v41q0 16 -0.5 30t-0.5 18q0 13 -5 29t-17 29.5t-31.5 22.5t-49.5 9h-133v-97h-438v97zM955 310v-52q0 -23 0.5 -52t0.5 -58t-10.5 -47.5t-26 -30t-33 -16t-31.5 -4.5q-14 -1 -29.5 -0.5
t-29.5 0.5h-32l-45 128h-439l-44 -128h-29h-34q-20 0 -45 1q-25 0 -41 9.5t-25.5 23t-13.5 29.5t-4 30v167h911zM163 247q-12 0 -21 -8.5t-9 -21.5t9 -21.5t21 -8.5q13 0 22 8.5t9 21.5t-9 21.5t-22 8.5zM316 123q-8 -26 -14 -48q-5 -19 -10.5 -37t-7.5 -25t-3 -15t1 -14.5
t9.5 -10.5t21.5 -4h37h67h81h80h64h36q23 0 34 12t2 38q-5 13 -9.5 30.5t-9.5 34.5q-5 19 -11 39h-368zM336 498v228q0 11 2.5 23t10 21.5t20.5 15.5t34 6h188q31 0 51.5 -14.5t20.5 -52.5v-227h-327z" />
    

    
    <glyph glyph-name="shipintianchong" unicode="&#59024;" d="M960.43008 563.221504l-133.021696-45.024256L827.408384 635.128832c0 23.40352-18.967552 42.376192-42.372096 42.376192l-114.55488 0L253.991936 677.505024 73.79968 677.505024c-23.40352 0-42.376192-18.971648-42.376192-42.376192l0-349.394944 0-132.69504-0.556032-24.56064c0-23.399424 18.971648-42.376192 42.376192-42.376192L555.39712 86.102016l229.640192 0c23.40352 0 42.372096 18.975744 42.372096 42.376192l0 14.076928 0 66.9952 133.021696-45.02016c23.40352 0 42.376192 18.971648 42.376192 42.372096L1002.807296 520.845312C1002.805248 544.248832 983.8336 563.221504 960.43008 563.221504zM563.525632 364.54912 403.787776 244.013056c-3.692544-2.772992-8.1408-4.202496-12.58496-4.202496-3.182592 0-6.366208 0.735232-9.32352 2.2016-7.07584 3.509248-11.561984 10.77248-11.561984 18.683904L370.317312 494.429184c0 7.790592 4.365312 14.97088 11.298816 18.558976 6.892544 3.550208 15.276032 2.977792 21.6576-1.508352L563.01568 398.282752c5.44256-3.871744 8.70912-10.075136 8.809472-16.720896C571.925504 374.87104 568.84736 368.5888 563.525632 364.54912z"  horiz-adv-x="1024" />

    
    <glyph glyph-name="jiesuo" unicode="&#58987;" d="M256.64238 896C115.122314 896 0 780.877686 0 639.35762l0-180.435889 104.361166 0 0 180.435889c0 83.95891 68.322304 152.281214 152.281214 152.281214s152.281214-68.300342 152.281214-152.281214l0-180.435889 104.383128 0 0 180.435889C513.306722 780.877686 398.162447 896 256.64238 896zM971.599824 428.505019 373.631423 428.505019c-45.438395 0-82.289834-36.829477-82.289834-82.267872l0-391.947335c0-45.460357 36.829477-82.289834 82.289834-82.289834l597.9684 0c45.416434 0 82.245911 36.829477 82.245911 82.289834L1053.845734 346.259108C1053.845734 391.675542 1017.038219 428.505019 971.599824 428.505019zM838.425136 114.169713l-81.52118 0c-14.011453-32.700711-46.448625-55.606581-84.288333-55.606581s-70.27688 22.90587-84.310294 55.606581l-81.52118 0 0 72.187532 81.52118 0c14.033414 32.678749 46.470587 55.58462 84.310294 55.58462s70.27688-22.90587 84.288333-55.58462l81.52118 0L838.425136 114.169713z"  horiz-adv-x="1055" />

    
    <glyph glyph-name="shoucangfuxing" unicode="&#58994;" d="M956.074981 466.366939c-2.269693 7.402597-9.495258 20.456914-33.253358 24.761963l-262.98253 38.078247L545.028231 760.87958c-10.788717 21.770839-25.152866 26.356274-35.308157 26.356274-22.055318 0-34.348296-21.659299-36.747949-26.333762L358.140797 529.208173l-258.923074-37.492916c-17.794271-3.03308-30.413684-12.443403-34.585703-25.830295-4.454452-14.257725 1.025353-29.039383 16.334014-43.886533l183.937243-178.568978-43.757596-254.118652c-1.089821-6.290263-4.364401-25.438369 7.185656-39.083134 10.022261-11.857049 26.898627-14.632255 45.416376-6.531763 0.456395 0.198521 0.939395 0.418532 1.396813 0.676405l233.834676 122.453936 233.920634-122.453936c8.866948-4.670369 16.790408-6.941086 24.150026-6.941086 9.301853 0 17.643845 3.667529 23.537066 10.285251 4.782933 5.393847 10.022261 15.282055 7.777127 32.752961L753.055125 243.428428l188.720176 183.174879C958.630177 442.95881 958.849164 457.237001 956.074981 466.366939"  horiz-adv-x="1024" />

    
    <glyph glyph-name="shuju" unicode="&#59345;" d="M1002.602667-85.269333l-30.250667 0L972.352 513.109333c0 11.797333-9.536 21.354667-21.354667 21.354667l-206.634667 0c-11.818667 0-21.333333-9.557333-21.333333-21.354667l0-598.378667-60.544 0L662.485333 771.349333c0 11.797333-9.578667 21.376-21.376 21.376l-206.613333 0c-11.776 0-21.354667-9.578667-21.354667-21.376l0-856.618667-60.565333 0L352.576 384c0 11.776-9.557333 21.354667-21.354667 21.354667L124.650667 405.354667c-11.797333 0-21.376-9.557333-21.376-21.354667l0-469.269333L42.709333-85.269333 42.709333 874.645333C42.709333 886.442667 33.152 896 21.354667 896S0 886.442667 0 874.645333l0-981.269333C0-118.442667 9.557333-128 21.354667-128l103.296 0 206.592 0 103.274667 0 206.613333 0 103.253333 0 206.634667 0 51.626667 0c11.84 0 21.376 9.557333 21.354667 21.376C1023.978667-94.826667 1014.421333-85.269333 1002.602667-85.269333zM309.888-85.269333 146.026667-85.269333 146.026667 362.624l163.861333 0L309.888-85.269333zM619.754667-85.269333 455.893333-85.269333 455.893333 749.973333l163.861333 0L619.754667-85.269333zM929.642667-85.269333l-163.861333 0L765.781333 491.754667l163.861333 0L929.642667-85.269333z"  horiz-adv-x="1025" />

    
    <glyph glyph-name="shuaxin" unicode="&#58918;" d="M1007.2 633.6c-12.8 6.4-32 0-38.4-19.2l-25.6-70.4C904.8 640 847.2 716.8 757.6 768c-108.8 64-230.4 89.6-352 57.6C232.8 787.2 104.8 659.2 60 486.4 53.6 467.2 66.4 454.4 79.2 448 98.4 448 111.2 454.4 117.6 473.6c38.4 153.6 153.6 268.8 307.2 300.8 108.8 25.6 217.6 6.4 307.2-51.2 76.8-44.8 134.4-115.2 166.4-198.4l-76.8 32c-12.8 6.4-32 0-38.4-19.2-6.4-12.8 0-32 12.8-38.4l128-51.2c6.4-6.4 12.8-6.4 19.2-6.4 0 0 6.4 0 6.4 0 0 0 0 0 0 0 0 0 0 0 6.4 0 6.4 0 12.8 6.4 12.8 12.8L1026.4 601.6C1032.8 614.4 1020 627.2 1007.2 633.6zM949.6 320c-12.8 6.4-32-6.4-32-19.2-38.4-153.6-153.6-268.8-307.2-300.8-108.8-25.6-217.6-6.4-307.2 51.2-76.8 44.8-134.4 115.2-166.4 198.4l76.8-32c12.8-6.4 32 0 38.4 19.2 6.4 12.8 0 32-12.8 38.4L104.8 320C98.4 320 92 326.4 85.6 326.4c0 0-6.4 0-6.4 0 0 0 0 0 0 0 0 0 0 0-6.4 0C66.4 320 60 313.6 60 307.2L2.4 166.4c-6.4-12.8 0-32 19.2-38.4 12.8-6.4 32 0 38.4 19.2l25.6 70.4C124 128 181.6 51.2 271.2 0c108.8-64 230.4-89.6 352-57.6 172.8 38.4 307.2 172.8 345.6 345.6C975.2 300.8 962.4 313.6 949.6 320z"  horiz-adv-x="1029" />

    
    <glyph glyph-name="xiangji" unicode="&#59303;" d="M772.563946 599.59322c-39.380916 0-84.502579 27.996634-100.636025 47.311539l-43.714617 52.253084c-11.048637 13.175067-30.363542 28.9084-59.815317 28.9084L456.249767 728.066243c-30.219255 0-46.6249-12.32777-63.253626-32.234145l-41.427528-49.566906c-16.341177-19.47454-62.086034-46.671972-99.484805-46.671972-11.879562 0-21.473057 9.609869-21.473057 21.537526 0 11.879562 9.593496 21.521153 21.473057 21.521153 23.296589 0 57.560974 20.577664 66.514903 31.322379l41.427528 49.51881c19.682271 23.552415 46.512337 47.600111 96.222505 47.600111l112.14822 0c48.462758 0 78.922491-27.740808 92.78522-44.322461l42.578748-50.909483c10.264784-12.263301 43.74634-33.209356 68.800969-33.209356 11.879562 0 21.473057-9.641591 21.473057-21.521153C794.037003 609.202065 784.443507 599.59322 772.563946 599.59322L772.563946 599.59322zM834.346057-3.118781 189.630407-3.118781c-47.359634 0-85.925998 38.581714-85.925998 86.037539L103.704408 556.533518c0 47.50392 38.566364 86.117356 85.925998 86.117356l60.406788 0c11.879562 0 21.473057-9.641591 21.473057-21.521153 0-11.927657-9.593496-21.537526-21.473057-21.537526l-60.406788 0c-23.680329 0-42.947138-19.298532-42.947138-43.058678L146.683269 82.918757c0-23.712051 19.266809-43.010583 42.947138-43.010583L834.346057 39.908174c23.663956 0 42.97886 19.298532 42.97886 43.010583L877.324918 556.533518c0 23.760147-19.314904 43.058678-42.97886 43.058678l-60.647265 0c-11.879562 0-21.505803 9.609869-21.505803 21.537526 0 11.879562 9.625218 21.521153 21.505803 21.521153l60.647265 0c47.40773 0 85.957721-38.613436 85.957721-86.117356L920.303778 82.918757C920.303778 35.462932 881.753787-3.118781 834.346057-3.118781L834.346057-3.118781zM662.190139 319.766047c-11.879562 0-21.473057 9.609869-21.473057 21.48943 0 71.103408-57.768705 128.936581-128.72885 128.936581-70.943772 0-128.72885-57.833173-128.72885-128.936581 0-71.088058 57.785078-128.936581 128.72885-128.936581 24.38334 0 48.334845 7.14677 69.2809 20.658506 10.008958 6.460132 23.248494 3.485381 29.692253-6.507204 6.412037-10.025331 3.501754-23.344684-6.443759-29.755698-27.933189-17.972327-59.911508-27.453259-92.529393-27.453259-94.703919 0-171.70771 77.148078-171.70771 171.995259 0 94.863555 77.003791 172.043355 171.70771 172.043355s171.70771-77.1798 171.70771-172.043355C683.695942 329.375915 674.070724 319.766047 662.190139 319.766047L662.190139 319.766047z"  horiz-adv-x="1024" />

    
    <glyph glyph-name="xiaoxi" unicode="&#58927;" d="M286.077 606.352c-26.568 0-48.182-21.601-48.182-48.152 0-26.568 21.614-48.183 48.182-48.183 26.569 0 48.184 21.615 48.184 48.183 0.001 26.552-21.615 48.152-48.184 48.152zM419.834 606.352c-26.568 0-48.183-21.601-48.183-48.152 0-26.568 21.615-48.183 48.183-48.183 26.551 0 48.152 21.615 48.152 48.183 0 26.552-21.601 48.152-48.152 48.152zM553.592 601.992c-26.569 0-48.184-21.616-48.184-48.184 0-26.551 21.615-48.151 48.184-48.151 26.55 0 48.151 21.6 48.151 48.151 0 26.569-21.6 48.184-48.151 48.184zM869.58 514.428h-95.782v204.13c0 57.651-46.903 104.554-104.556 104.554h-498.844c-57.634 0-104.523-46.902-104.523-104.554v-336.573c0-57.043 45.9-103.564 102.697-104.54l-1.116-150.199 216.785 149.742v-118.801c0-48.762 39.671-88.432 88.431-88.432h224.654l179.915-124.307-0.884 124.564c45.606 3.473 81.654 41.694 81.654 88.175l0 267.81c0 48.761-39.668 88.429-88.429 88.429zM368.914 328.664l-149.515-103.257 0.766 103.257h-49.767c-29.384 0-53.291 23.92-53.291 53.321l0 336.573c0 29.403 23.905 53.323 53.291 53.323h498.844c29.402 0 53.322-23.921 53.322-53.323v-336.573c0-29.402-23.921-53.321-53.322-53.321l-300.328-0zM906.778 158.188c0-20.511-16.687-37.198-37.198-37.198h-44.843l0.566-77.382-112.014 77.382h-240.617c-20.511 0-37.199 16.687-37.199 37.198v119.241h233.768c57.653 0 104.556 46.904 104.556 104.556v81.211h95.784c20.511 0 37.198-16.687 37.198-37.197v-267.81z"  horiz-adv-x="1024" />

    
    <glyph glyph-name="picture" unicode="&#58891;" d="M862.669 763.982c0 17.554-14.372 31.933-31.926 31.933h-733.529c-17.563 0-31.923-14.379-31.923-31.933v-574.302c0-17.555 14.361-31.915 31.923-31.915h27.257c17.563 0 31.925 14.359 31.925 31.915v481.592c0 17.555 14.362 31.916 31.925 31.916h642.423c17.554 0 31.926 14.379 31.926 31.933l0 28.86h-0.001zM921.498 641.696h-669.629c-20.554 0-37.22-16.648-37.22-37.201v-595.224c0-20.537 16.666-37.186 37.22-37.186h669.659c20.554 0 37.181 16.649 37.181 37.186l0 595.223c-0.024 20.554-16.66 37.202-37.21 37.202v0 0zM847.086 83.71h-520.835v185.96l111.632 111.624 186.003-185.994 111.635 111.589 111.602-111.589v-111.592l-0.037-0v0.001zM772.679 381.294c-41.122 0-74.377 33.313-74.377 74.386 0 41.148 33.255 74.408 74.377 74.408 41.148 0 74.408-33.259 74.408-74.408 0-41.073-33.259-74.386-74.408-74.386v0 0zM772.679 381.294z"  horiz-adv-x="1024" />

    
    <glyph glyph-name="weibiaoti8" unicode="&#58906;" d="M1008 560.8 1008 560.8l-160-144 0 0c-8.8-8-20-12.8-32-12.8-26.4 0-48 21.6-48 48 0 14.4 6.4 26.4 16 35.2l0 0 67.2 60L560 547.2c0 0 0 0 0 0L464 547.2l0 0L352 547.2 48 547.2c-26.4 0-48 21.6-48 48 0 26.4 21.6 48 48 48l124.8 0 0 0L416 643.2l0 0 208 0 0 0 227.2 0L784 704l0 0c-9.6 8.8-16 21.6-16 35.2 0 26.4 21.6 48 48 48 12 0 23.2-4.8 32-12.8l0 0 160-144 0 0c9.6-8.8 16-21.6 16-35.2C1024 581.6 1017.6 569.6 1008 560.8zM16 215.2 16 215.2l160 144 0 0c8.8 8 20 12.8 32 12.8 26.4 0 48-21.6 48-48 0-14.4-6.4-26.4-16-35.2l0 0-67.2-60L400 228.8l0 0 208 0 0 0 243.2 0 0 0L976 228.8c26.4 0 48-21.6 48-48 0-26.4-21.6-48-48-48L672 132.8 560 132.8c0 0 0 0 0 0L464 132.8l0 0L172.8 132.8 240 72l0 0c9.6-8.8 16-21.6 16-35.2 0-26.4-21.6-48-48-48-12 0-23.2 4.8-32 12.8l0 0L16 144l0 0c-9.6 8.8-16 21.6-16 35.2C0 194.4 6.4 206.4 16 215.2z"  horiz-adv-x="1024" />

    
    <glyph glyph-name="wodehaoyou" unicode="&#58920;" d="M969.460505 32.318147 863.386181 32.318147C855.84255 60.494888 849.945092 81.543538 830.462705 96.247226L959.503551 96.247226 959.503551 153.080177C955.252267 156.020914 949.450703 159.361209 944.735934 161.358992 942.866008 162.158106 940.612508 163.228918 938.838476 164.187854L734.601052 275.664185C715.741974 285.972749 703.32375 305.039597 701.501771 326.455838 699.72774 347.872079 708.805669 368.744924 725.698928 382.042172 780.85374 425.434034 799.393173 521.055954 799.393173 571.112422L799.393173 706.098672C799.393173 753.102527 714.655179 832.086904 622.309625 832.086904 576.088901 832.086904 533.48017 816.472226 499.789546 790.245322 474.729347 798.236456 445.73751 798.268421 419.414712 799.898612 465.555524 853.870737 544.8116 896.015982 622.309625 896.015982 741.585304 896.015982 863.322252 795.455542 863.322252 706.098672L863.322252 571.112422C863.322252 506.288336 840.00412 390.624651 765.223081 331.793916L969.460505 220.317585C969.460505 220.317585 1023.432629 198.10223 1023.432629 166.313496L1023.432629 86.306254C1023.432629 56.499321 999.235473 32.318147 969.460505 32.318147ZM639.602441 546.931248 639.602441 411.960981C639.602441 347.120913 619.288976 231.457227 544.491954 172.626492L745.740694 61.150162C745.740694 61.150162 799.712819 38.934807 799.712819 7.146072L799.712819-73.85207C799.712819-103.659003 775.515662-127.85616 745.740694-127.85616L54.507531-127.85616C24.764527-127.85616 0.567371-103.659003 0.567371-73.85207L0.567371 7.146072C0.567371 37.112828 54.507531 61.150162 54.507531 61.150162L260.96649 173.121943C185.386337 233.710727 160.453996 352.986406 160.453996 411.960981L160.453996 546.931248C160.453996 636.288118 282.350767 735.841676 401.594481 735.841676 520.87016 735.841676 639.602441 636.288118 639.602441 546.931248ZM575.673362 546.931248C575.673362 593.935103 493.924053 671.912597 401.594481 671.912597 310.943048 671.912597 224.383075 592.848309 224.383075 546.931248L224.383075 411.960981C224.383075 361.169328 247.349597 265.994912 300.954129 223.002606 317.655601 209.609465 326.541743 188.73662 324.639853 167.416273 322.737963 146.095925 310.25581 127.140953 291.428696 116.944265L84.969737 4.972484C83.531332 4.157388 82.044981 3.438186 80.542648 2.750948 75.492251 0.433519 69.083361-3.43419 64.496449-6.774485L64.496449-63.927081 735.78374-63.927081 735.78374-6.087247C731.532456-3.146509 725.730892 0.193785 721.016123 2.191569 719.146197 3.006664 716.892697 4.061494 715.118665 5.02043L513.869926 116.496761C495.02683 126.805325 482.592624 145.872173 480.786627 167.288414 479.012595 188.704656 488.090525 209.5775 504.983784 222.874748 560.138596 266.26661 575.673362 361.88853 575.673362 411.960981L575.673362 546.931248Z"  horiz-adv-x="1024" />

    
    <glyph glyph-name="shouhuishangxia" unicode="&#59280;" d="M454.464 241.984l-253.44-253.44c-12.032-12.032-12.032-31.36 0-43.392 11.968-11.968 31.36-11.968 43.328 0l237.376 237.376 237.376-237.376c11.968-11.968 31.36-11.968 43.328 0 12.032 12.032 12.032 31.36 0 43.392l-253.44 253.44C491.264 259.712 478.016 261.696 454.464 241.984zM507.968 459.072l252.48 253.376c11.968 11.968 11.968 31.36 0 43.392-11.968 11.968-31.296 11.968-43.264 0L480.704 518.464 244.16 755.84c-11.968 11.968-31.296 11.968-43.264 0-11.968-12.032-11.968-31.424 0-43.392l252.48-253.376C465.984 446.656 491.136 442.176 507.968 459.072z"  horiz-adv-x="1024" />

    
    <glyph glyph-name="zhinanzhen" unicode="&#58929;" d="M512 432.818869c-26.850531 0-48.818869-21.968337-48.818869-48.818869s21.968337-48.818869 48.818869-48.818869c27.072589 0 48.818869 21.968337 48.818869 48.818869S539.072589 432.818869 512 432.818869zM512 827.808922c-245.204631 0-443.808922-198.60429-443.808922-443.808922 0-244.982574 198.60429-443.808922 443.808922-443.808922s443.808922 198.826348 443.808922 443.808922C955.808922 629.204631 757.203608 827.808922 512 827.808922zM609.193623 286.806377l-363.479385-169.091116 169.091116 363.479385 363.479385 169.091116L609.193623 286.806377z"  horiz-adv-x="1024" />

    
    <glyph glyph-name="moban" unicode="&#58911;" d="M880.772948 34.875554l0-16.623609c0-80.719416-131.784442-80.719416-284.407492-80.719416l-168.754448 0c-158.874427 0-284.383956 0-284.383956 80.719416l0 16.623609c0 154.426115 127.546931 280.028764 284.383956 280.028764l168.754448 0C753.191224 314.904319 880.772948 189.265854 880.772948 34.875554zM748.501412 589.122751c0-133.092227-109.88262-241.345744-244.948805-241.345744-135.052882 0-244.948805 108.291378-244.948805 241.345744 0 133.066645 109.895923 241.345744 244.948805 241.345744C638.618792 830.467471 748.501412 722.213955 748.501412 589.122751z"  horiz-adv-x="1024" />

    
    <glyph glyph-name="tupian1" unicode="&#58935;" d="M909.906987 708.823993 145.131937 708.823993c-36.271088 0-65.769936-29.500894-65.769936-65.770959l0-484.669538c0-36.270065 29.499871-65.778122 65.769936-65.778122l764.775051 0c36.271088 0 65.770959 29.508058 65.770959 65.778122l0 484.668515C975.67897 679.323099 946.179099 708.823993 909.906987 708.823993zM909.906987 120.606101 145.131937 120.606101c-20.816095 0-37.761022 16.947997-37.761022 37.776372l0 25.876344 307.440068 267.338744 170.248476-170.240289 84.74101 112.997564 277.66595-237.983159C946.397063 136.500093 930.039513 120.606101 909.906987 120.606101zM947.670056 193.073576 665.340899 435.083445l-83.320661-111.082958L416.149467 489.879446 107.369891 221.370039 107.369891 643.052011c0 20.823258 16.946974 37.761022 37.761022 37.761022l764.775051 0c20.817118 0 37.762045-16.938788 37.762045-37.761022L947.670056 193.073576 947.670056 193.073576zM793.614377 624.793158c-46.336328 0-84.028788-37.692461-84.028788-84.022649 0-46.337351 37.692461-84.036975 84.028788-84.036975s84.030835 37.699624 84.030835 84.036975C877.645213 587.100698 839.950705 624.793158 793.614377 624.793158zM793.614377 484.750635c-30.894637 0-56.019875 25.124214-56.019875 56.019875 0 30.882358 25.125237 56.019875 56.019875 56.019875 30.896684 0 56.019875-25.137517 56.019875-56.019875C849.634252 509.874849 824.511062 484.750635 793.614377 484.750635z"  horiz-adv-x="1024" />

    
    <glyph glyph-name="fabiaoyouji" unicode="&#58894;" d="M459.81754 271.538193l-76.03185-15.20629 15.20629 76.053236L834.62522 831.979014l60.846946-60.82536L459.81754 271.538193zM568.862407 703.493328c-3.828404 0-290.361735 0-290.361735 0-47.511787 0-86.03307-38.521283-86.03307-86.03307l0-466.413572c0-47.511787 38.521283-86.03307 86.03307-86.03307l466.413572 0c47.511787 0 86.03307 38.521283 86.03307 86.03307 0 0 0 353.212922 0 357.01994 0 17.808926 14.432015 32.262526 32.262326 32.262526 17.808926 0 32.262526-14.4536 32.262526-32.262526 0-3.807019 0-378.528158 0-378.528158 0-71.278473-57.792816-129.049704-129.049704-129.049704L256.992255 0.488765c-71.278473 0-129.049704 57.771231-129.049704 129.049704L127.942551 638.968475c0 71.278473 57.771231 129.049704 129.049704 129.049704 0 0 308.041548 0 311.869952 0 17.808726 0 32.262326-14.4536 32.262326-32.262326C601.124733 717.925343 586.671133 703.493328 568.862407 703.493328z"  horiz-adv-x="1024" />

    
    <glyph glyph-name="xiaoxi002" unicode="&#58938;" d="M838.32811 30.476033 185.669612 30.476033c-60.071472 0-108.77605 48.705578-108.77605 108.770653L76.893562 628.745606c0 60.095255 48.705578 108.77605 108.77605 108.77605L838.330108 737.521656c60.071472 0 108.778848-48.680994 108.778848-108.77605l0-489.496122C947.109756 79.181611 898.40138 30.476033 838.32811 30.476033L838.32811 30.476033zM212.863574 683.130933 512.000759 423.089641 811.133148 683.130933 212.863574 683.130933 212.863574 683.130933zM892.718033 628.745606c0 15.671375-6.704055 29.662089-17.289078 39.569772L512.001559 356.805382 148.570565 668.316377c-10.593018-9.904884-17.28628-23.899396-17.28628-39.569772l0-489.493324c0-30.038434 24.352289-54.390723 54.385327-54.390723l652.663094 0c30.033038 0 54.385327 24.352289 54.385327 54.390723L892.718033 628.745606 892.718033 628.745606z"  horiz-adv-x="1024" />

    
    <glyph glyph-name="243" unicode="&#58956;" d="M825.344 711.031467c-7.441067-0.273067-14.779733-0.375467-21.947733-0.375467l-0.034133 0c-188.654933 0-271.803733 86.459733-272.4864 87.2448L512 818.517333l-18.875733-20.616533C492.305067 797.013333 404.616533 704.034133 198.656 711.031467L172.168533 711.918933l0-391.9872c0-102.673067 34.269867-252.416 330.615467-366.8992L512-50.517333l9.216 3.549867c296.3456 114.4832 330.615467 264.260267 330.615467 366.8992L851.831467 711.918933 825.344 711.031467 825.344 711.031467zM478.208 203.707733l-197.802667 175.274667 52.5312 42.5984 105.198933-77.585067c0 0 145.237333 150.2208 285.422933 220.330667l20.002133-22.528C743.594667 541.764267 568.32 396.4928 478.208 203.707733L478.208 203.707733z"  horiz-adv-x="1024" />

    
    <glyph glyph-name="zhongbo-m" unicode="&#58887;" d="M874.144 633.44c-138.912 183.456-402.88 220.96-588.384 83.648-60.16-44.544-106.784-104.352-135.584-172.224l-21.696 73.92c-4.992 16.96-22.752 26.752-39.712 21.696-16.96-4.992-26.688-22.784-21.696-39.744l47.456-161.76c4.096-13.92 16.832-22.976 30.688-22.976 2.976 0 22.72 5.76 25.824 6.912l161.248 59.264c16.576 6.080 25.088 24.48 18.976 41.088-6.080 16.576-24.384 25.056-41.088 18.976l-107.968-39.68c23.424 64.576 65.568 121.632 121.6 163.104 157.376 116.576 381.376 84.768 499.296-70.848 56.832-75.008 80.8-167.456 67.488-260.256-13.376-93.28-62.784-175.712-139.072-232.192-157.536-116.512-381.568-84.736-499.392 70.72-10.688 14.112-30.72 16.864-44.832 6.176-14.080-10.656-16.832-30.752-6.176-44.8 82.464-108.832 208.992-166.24 337.024-166.24 87.68 0 176.032 26.912 251.456 82.72 90.144 66.72 148.512 164.224 164.352 274.528 15.84 109.824-12.512 219.2-79.808 307.968z"  horiz-adv-x="1024" />

    
    <glyph glyph-name="gongxiangtubiaozhuangtaileicaozuolei23" unicode="&#58952;" d="M563.120125 511.00156C550.340094 523.781591 537.560062 536.561622 524.780031 542.951638L492.829953 491.831513C499.219969 485.441498 512 472.661466 518.390016 466.271451l12.780031-12.780031c70.290172-70.290172 70.290172-185.310452 0-255.600624L384.199688 57.310452c-70.290172-70.290172-185.310452-70.290172-255.600624 0L115.819033 63.700468C83.868955 102.040562 64.698908 146.770671 64.698908 191.50078c0 51.120125 19.170047 95.850234 51.120125 127.800312L256.399376 459.881435 211.669267 504.611544 71.088924 370.421217C26.358814 319.301092 0.798752 261.790952 0.798752 191.50078c0-63.900156 25.560062-127.800312 70.290172-172.530421l12.780031-12.780031C128.599064-38.539782 192.49922-64.099844 256.399376-64.099844c63.900156 0 127.800312 25.560062 172.530421 70.290172L575.900156 153.160686c95.850234 95.850234 95.850234 249.210608 0 345.060842L563.120125 511.00156zM889.01092 811.332293l-12.780031 12.780031c-95.850234 95.850234-255.600624 95.850234-345.060842 0L384.199688 683.531981C288.349454 587.681747 288.349454 427.931357 384.199688 332.081123l12.780031-12.780031c12.780031-12.780031 25.560062-25.560062 38.340094-31.950078l31.950078 51.120125C460.879875 351.25117 448.099844 357.641186 441.709828 370.421217L428.929797 376.811232C358.639626 447.101404 358.639626 562.121685 428.929797 638.801872L575.900156 779.382215c70.290172 70.290172 191.700468 70.290172 255.600624 0L844.280811 766.602184c70.290172-70.290172 70.290172-185.310452 0-255.600624L703.700468 370.421217l44.730109-44.730109 140.580343 140.580343C984.861154 562.121685 984.861154 721.872075 889.01092 811.332293z"  horiz-adv-x="1024" />

    
    <glyph glyph-name="gongxiangtubiaozhuangtaileicaozuolei56" unicode="&#58985;" d="M396.8 384l288 0c12.8-64 70.4-108.8 134.4-108.8 76.8 0 134.4 57.6 134.4 134.4 0 76.8-64 140.8-134.4 140.8-64 0-121.6-44.8-134.4-108.8L396.8 441.6c0 0-6.4 19.2-6.4 32l217.6 166.4c25.6-19.2 51.2-32 83.2-32 76.8 0 134.4 64 134.4 134.4 0 76.8-64 134.4-134.4 134.4C614.4 896 550.4 832 550.4 755.2c0-19.2 6.4-38.4 12.8-57.6L358.4 537.6C320 582.4 262.4 608 198.4 608 89.6 608 0 518.4 0 409.6s89.6-198.4 198.4-198.4c64 0 121.6 32 153.6 76.8l217.6-166.4c-6.4-19.2-12.8-32-12.8-51.2 0-76.8 64-134.4 134.4-134.4s134.4 64 134.4 134.4c0 76.8-64 134.4-134.4 134.4-32 0-64-12.8-89.6-32L390.4 345.6C390.4 358.4 396.8 384 396.8 384zM819.2 486.4c38.4 0 70.4-32 70.4-70.4 0-38.4-32-70.4-70.4-70.4-38.4 0-70.4 32-70.4 70.4C748.8 454.4 780.8 486.4 819.2 486.4zM691.2 832c38.4 0 70.4-32 70.4-70.4s-32-70.4-70.4-70.4S614.4 716.8 614.4 755.2 646.4 832 691.2 832zM774.4 64c0-38.4-32-70.4-70.4-70.4S627.2 25.6 627.2 64c0 38.4 32 70.4 70.4 70.4S774.4 108.8 774.4 64zM198.4 275.2C128 275.2 64 332.8 64 409.6s64 134.4 134.4 134.4c76.8 0 134.4-64 134.4-134.4S275.2 275.2 198.4 275.2z"  horiz-adv-x="1024" />

    
    <glyph glyph-name="wode" unicode="&#58910;" d="M493.60896 747.29472c91.77088 0 166.44096-75.79648 166.44096-168.96s-74.67008-168.96-166.44096-168.96-166.44096 75.79648-166.44096 168.96S401.83808 747.29472 493.60896 747.29472L493.60896 747.29472zM581.2224 294.99392c122.5728 0 222.28992-101.13024 222.3104-225.44384l0-16.15872c0-4.68992-0.83968-6.0416-3.97312-8.51968-4.05504-3.21536-14.52032-9.33888-38.97344-14.2336-44.68736-8.92928-110.10048-8.92928-179.34336-8.92928l-159.31392 0c-70.73792 0-137.5232 0-181.41184 8.9088-23.51104 4.77184-33.34144 10.67008-37.13024 13.78304-2.4576 2.00704-3.72736 3.31776-3.72736 8.99072l0 16.15872c0 124.3136 99.71712 225.44384 222.26944 225.44384L581.2224 294.99392 581.2224 294.99392zM493.60896 794.112c-117.248 0-212.64384-96.80896-212.64384-215.7568 0-118.94784 95.39584-215.7568 212.64384-215.7568 117.248 0 212.64384 96.78848 212.64384 215.7568C706.2528 697.32352 610.85696 794.112 493.60896 794.112L493.60896 794.112M581.2224 341.79072l-159.31392 0c-148.0704 0-268.4928-122.12224-268.4928-272.24064l0-16.15872c0-78.49984 118.49728-78.49984 268.4928-78.49984l159.31392 0c144.09728 0 268.51328 0 268.51328 78.49984l0 16.15872C849.73568 219.648 729.2928 341.79072 581.2224 341.79072L581.2224 341.79072"  horiz-adv-x="1024" />

    
    <glyph glyph-name="wode2" unicode="&#58912;" d="M508.96896 803.7376c-117.248 0-212.64384-96.80896-212.64384-215.7568 0-118.94784 95.39584-215.7568 212.64384-215.7568 117.248 0 212.64384 96.78848 212.64384 215.7568C721.6128 706.9696 626.21696 803.7376 508.96896 803.7376L508.96896 803.7376M596.5824 351.4368l-159.3344 0c-148.04992 0-268.47232-122.12224-268.47232-272.24064l0-16.15872c0-78.49984 118.49728-78.49984 268.47232-78.49984l159.3344 0c144.09728 0 268.51328 0 268.51328 78.49984l0 16.15872C865.09568 229.29408 744.6528 351.4368 596.5824 351.4368L596.5824 351.4368"  horiz-adv-x="1024" />

    
    <glyph glyph-name="shouye2" unicode="&#58913;" d="M953.52832 476.83584 531.43552 786.96448c-4.58752 3.3792-9.95328 4.89472-15.23712 4.75136-5.28384 0.14336-10.67008-1.37216-15.23712-4.75136L78.86848 476.83584c-10.91584-8.02816-13.23008-23.32672-5.18144-34.18112 8.04864-10.87488 23.42912-13.16864 34.34496-5.16096l58.04032 42.63936L166.07232 37.6832c0-33.03424 27.11552-64.86016 65.16736-64.86016l177.19296 0c0 0 4.99712-0.16384 10.73152 2.64192 2.64192 1.20832 5.36576 2.99008 7.61856 5.59104 6.22592 6.61504 6.22592 15.54432 6.22592 15.54432l0 164.9664c0 0-1.76128 28.30336 27.7504 28.30336l89.41568 0c15.31904 0 27.7504-11.93984 27.7504-26.70592l0-167.85408c0 0-0.12288-8.0896 7.00416-15.42144 6.08256-6.94272 17.24416-7.04512 17.24416-7.04512l200.704 0c38.05184 0 65.16736 31.82592 65.16736 64.86016L868.0448 478.90432l56.34048-41.39008c10.91584-8.02816 26.29632-5.71392 34.34496 5.16096C966.7584 453.50912 964.44416 468.82816 953.52832 476.83584L953.52832 476.83584M819.99872 58.90048"  horiz-adv-x="1024" />

    
    <glyph glyph-name="shouye" unicode="&#58921;" d="M940.8512 486.68672 518.77888 796.81536c-4.58752 3.3792-9.95328 4.89472-15.23712 4.75136-5.28384 0.14336-10.67008-1.37216-15.23712-4.75136L66.21184 486.68672c-10.91584-8.02816-13.23008-23.32672-5.18144-34.18112 8.04864-10.87488 23.42912-13.16864 34.34496-5.16096l58.04032 42.63936 0-442.44992c0-33.03424 27.11552-64.86016 65.16736-64.86016l177.19296 0c0 0 4.99712-0.16384 10.73152 2.62144 2.64192 1.20832 5.36576 2.99008 7.61856 5.59104 6.22592 6.61504 6.22592 15.54432 6.22592 15.54432l0 164.9664c0 0-1.76128 28.30336 27.7504 28.30336l89.41568 0c15.31904 0 27.7504-11.93984 27.7504-26.68544l0-167.85408c0 0-0.12288-8.0896 7.00416-15.42144 6.08256-6.94272 17.24416-7.0656 17.24416-7.0656l200.704 0c38.05184 0 65.16736 31.82592 65.16736 64.86016L855.38816 488.7552l56.34048-41.39008c10.91584-8.02816 26.29632-5.71392 34.34496 5.16096C954.08128 463.38048 951.76704 478.67904 940.8512 486.68672L940.8512 486.68672M807.34208 68.75136c0-16.11776-5.98016-37.13024-40.93952-37.13024l-152.02304 0 0 153.68192c0 34.38592-34.67264 62.19776-63.11936 62.19776l-116.98176 0c-28.44672 0-63.11936-27.81184-63.11936-62.19776l0-153.68192-128.79872 0c-34.97984 0-40.93952 21.01248-40.93952 37.13024l0.36864 456.8064L503.54176 747.25376l303.43168-222.94528L807.34208 68.75136 807.34208 68.75136M807.34208 68.75136"  horiz-adv-x="1024" />

    
    <glyph glyph-name="changyonglogo28" unicode="&#59157;" d="M474.697931 432.866964c52.537564 55.155181 119.125121 74.453712 197.466374 70.189595-1.747807 8.009418-1.814322 14.22191-4.389984 19.11843-12.712533 24.170492-22.698978 50.789757-39.787168 71.474868-102.242616 123.764791-308.057121 138.461515-427.463652 31.18935-61.691037-55.423287-87.38421-124.68986-69.739341-206.809159 11.298324-52.575426 43.588751-92.715635 85.609797-124.551714 13.697977-10.382465 15.916505-19.665899 10.030447-34.608216-7.30436-18.535145-12.809747-37.781488-19.0908-56.720839 17.596773 3.874237 31.816636 9.761318 44.911886 17.542538 30.707372 18.24555 61.189617 28.17162 98.18623 16.900925 22.337751-6.800893 47.565319-4.123924 74.762751-5.92085C405.477406 310.513312 421.574013 377.090637 474.697931 432.866964zM497.939261 576.779631c19.834744 0.284479 31.798217-10.92277 32.226982-30.178323 0.442068-19.85521-10.726296-31.997762-29.841655-32.44597-21.970384-0.51677-38.566364 12.741185-38.723953 30.930453C461.449185 562.589444 477.38411 576.489012 497.939261 576.779631zM309.594639 514.162502c-21.693068-0.073678-37.788651 13.573133-37.541011 31.828916 0.233314 17.353227 16.143679 30.628578 36.897352 30.79333 19.576871 0.150426 33.157167-13.06148 32.867572-31.983435C341.537142 526.408407 328.722278 514.221854 309.594639 514.162502zM835.363224 424.500413c-81.796958 78.773088-215.099986 91.444689-312.212768 29.66974-125.474736-79.81379-124.392078-243.768933 2.771113-320.735885 61.081147-36.97103 127.145795-47.321772 196.581214-28.592198 14.377452 3.879354 26.002211 2.758834 38.630832-5.067412 17.174148-10.645454 35.464723-19.495006 53.278437-29.115108 1.274016 0.950651 2.548032 1.901303 3.822049 2.852978-4.882194 17.019629-10.796904 33.842783-14.117532 51.16531-1.249457 6.507204 1.530866 15.896038 5.932106 20.968567 11.326976 13.038968 25.615401 23.515576 36.914748 36.58115C913.685034 259.386888 908.943033 353.633389 835.363224 424.500413zM589.682755 331.021391c-14.864546-0.228197-26.891464 11.264555-26.424836 25.248034 0.456395 13.707187 11.322883 23.429619 26.14752 23.38971 16.312524-0.041956 29.684066-11.452843 29.205159-24.921599C618.16239 342.190779 604.82257 331.253682 589.682755 331.021391zM737.859539 330.990692c-13.485129 0.203638-26.317389 11.747555-26.63359 23.958668-0.340761 13.07069 12.692067 24.846898 27.374464 24.735357 16.766872-0.12996 28.897144-11.084453 28.241204-25.499767C766.255263 341.316875 753.061776 330.758402 737.859539 330.990692z"  horiz-adv-x="1024" />

    
    <glyph glyph-name="changyonglogo33" unicode="&#59162;" d="M246.732939 254.116861c6.365988-42.11519 25.958208-76.745918 55.858192-105.956194 4.900613-4.78498 1.950422-6.445806-2.885723-7.54279-12.980639-2.944052-25.308409-7.496741-35.977399-15.669888-19.086707-14.619976-21.397333-37.086663-5.742794-55.352679 8.341992-9.729595 19.002796-16.352433 30.689976-21.093411 41.953508-17.020652 85.856413-19.558451 130.23618-15.669888 31.725562 2.78237 61.184501 12.603039 86.340437 33.259498 7.141654 5.863545 20.886703 5.02034 28.492938-1.105171 13.796214-11.106965 29.16525-19.289322 46.12041-24.165376 54.30379-15.619746 108.22384-11.812023 161.595398 4.539386 14.282285 4.374634 27.125801 12.095479 37.340443 23.362081 16.778128 18.501376 14.503319 41.757033-5.514597 56.669674-10.486842 7.817036-22.506597 12.389168-35.180244 15.0733-7.566326 1.600451-8.812713 3.499707-2.858094 9.497305 23.64656 23.810289 41.027415 51.437509 49.496298 84.229356 0.324388 1.26276 0.846274 2.501984 3.139503 2.290159 1.394766-2.545986 2.905166-5.408173 4.504594-8.218172 6.03239-10.618848 12.038174-21.313422 21.803585-29.078269 15.905248-12.653181 33.066093-8.214079 40.770566 10.478655 2.52245 6.114255 3.835352 12.55392 4.65502 19.145036 1.974981 15.928784-0.173962 31.544437-3.121084 47.120181-9.011234 47.63388-36.746926 85.454254-65.004503 122.876562-4.411473 5.840008-5.827729 10.293437-3.815909 17.673521 7.875365 28.840862 4.978385 55.614645-18.551518 77.097936-4.137227 3.777023-5.894244 8.226359-6.67298 13.772678-7.219425 51.370994-26.485211 97.637738-58.851363 138.38579-67.055209 84.420715-177.13021 114.346281-274.535657 72.369238-77.224826-33.280987-123.69316-94.217848-146.130172-173.945681-6.747681-23.969924-13.135158-48.25298-16.136515-73.164347-0.221034-1.855254-1.082658-3.835352-2.209318-5.338588-8.702196-11.606339-11.304464-25.592888-7.975649-38.461987 3.224438-12.443403-1.911536-17.442254-10.042727-24.12342-45.38977-37.300534-73.758887-84.648912-81.458243-143.338592-2.355651-17.993816-2.895957-36.287461 5.824659-53.272297 8.026814-15.643282 25.657356-19.98824 40.122813-9.859555 6.004761 4.210905 10.578939 9.830903 14.656815 15.907295C234.373447 225.403912 240.142847 239.706663 246.732939 254.116861z"  horiz-adv-x="1024" />

    
    <glyph glyph-name="liulan" unicode="&#58909;" d="M922.368298 513.152499c-23.632233 38.296211-57.183374 72.499198-99.724259 101.658308-85.325317 58.485019-198.230784 90.694605-317.918723 90.694605-97.538477 0-190.459796-21.24793-268.717138-61.448514-38.234813-19.640316-71.738881-43.25106-99.582019-70.174246-28.804023-27.851325-50.915623-58.641585-65.721841-91.512227-6.689353-14.85022-0.073678-32.311917 14.777565-39.001269 14.85022-6.689353 32.31294-0.074701 39.001269 14.777565 23.548322 52.277644 72.726372 99.670024 138.475841 133.445268 69.957305 35.936467 153.558351 54.931077 241.766322 54.931077 107.903545 0 208.966289-28.54001 284.571221-80.363306 72.200392-49.488111 111.961978-114.180506 111.961978-182.158736s-39.762609-132.671649-111.961978-182.15976c-75.604932-51.822272-176.667675-80.363306-284.571221-80.363306-44.873 0-88.918145 4.979408-130.912585 14.798031-49.903573 11.670807-95.272877 29.6636-134.848221 53.482075-57.93755 34.869159-98.826819 79.491449-118.249171 129.044028-5.943362 15.165398-23.057135 22.639626-38.219463 16.695241-15.164375-5.943362-22.639626-23.055089-16.695241-38.219463 24.209378-61.767785 73.571622-116.421546 142.749168-158.055782 44.849464-26.992771 95.933933-47.307446 151.833057-60.379159 46.390563-10.848069 94.954629-16.34834 144.342456-16.34834 119.686916 0 232.593406 32.208563 317.918723 90.693582 42.540885 29.15911 76.093049 63.362096 99.724259 101.659331 25.130354 40.72554 37.872562 84.178191 37.872562 129.151475S947.498652 472.425935 922.368298 513.152499zM504.725316 218.694093c28.54615 0 56.697303 7.402597 81.410148 21.407566 23.930015 13.561877 44.286646 33.06814 58.868759 56.408731 16.373922 26.207895 25.029046 56.460919 25.029046 87.48961 0 31.709189-9.011234 62.526055-26.060539 89.119737-30.584576 47.705512-82.640162 76.18617-139.247414 76.18617-91.149976 0-165.30693-74.15593-165.30693-165.30693S413.574317 218.694093 504.725316 218.694093zM504.725316 490.324584c36.414351 0 69.907163-18.332531 89.592504-49.037856 10.946306-17.074887 16.733103-36.885072 16.733103-57.286728 0-19.964704-5.556553-39.411615-16.068977-56.237839-19.593244-31.362288-53.334719-50.086745-90.25663-50.086745-58.627259 0-106.324584 47.697325-106.324584 106.324584S446.098058 490.324584 504.725316 490.324584z"  horiz-adv-x="1024" />

    
    <glyph glyph-name="guanligudong" unicode="&#58928;" d="M562.834158 332.766742c114.0916 0 224.842013 2.174587 335.449158-0.859601 61.047039-1.673152 111.558847-57.726318 113.6004-121.214011 2.21552-68.967651 2.409954-138.129736-0.010233-207.087153-2.420187-69.008584-58.232869-119.970659-127.558687-120.420926-63.927727-0.419567-127.865687-0.521901-191.793414 0.025583-73.204257 0.629351-129.528606 57.276051-129.641173 129.81514C562.716474 118.608345 562.834158 224.190916 562.834158 332.766742zM611.237895 136.491121c0-39.183491-0.286534-78.372098 0.071633-117.550472 0.480967-52.13891 32.465298-84.834458 84.148823-85.269375 62.177824-0.521901 124.365882-0.491201 186.548823 0 48.971688 0.388867 79.502883 30.536311 80.132234 79.932684 0.798201 62.172708 0.834018 124.370999 0.04605 186.543707-0.649818 51.325359-31.329396 83.396672-82.629171 84.220457-80.899735 1.299635-161.840404 0.102333-242.760606 0.557717-18.471194 0.102333-25.992705-7.337311-25.716404-25.772688C611.693279 218.270924 611.268595 177.378464 611.237895 136.491121zM475.717664 333.165842c0-9.13838 0-15.72354 0-22.308699 0-100.511947 0.19955-201.018778-0.066517-301.530725-0.1842-69.668635-54.69213-125.292-124.176565-126.059501-65.580413-0.726568-131.181292-0.757268-196.756588 0.010233-69.950052 0.818668-126.786069 56.083865-128.402938 126.095318-1.499186 64.695228-1.575936 129.482556-0.148384 194.177784 1.637336 73.935942 59.552971 129.308589 133.611712 129.53884C263.67757 333.401209 367.581872 333.165842 475.717664 333.165842zM427.293459 133.487633c0 41.700894-0.220017 83.401789 0.112567 125.102683 0.127917 15.805406-3.893789 26.279238-22.487783 26.197372-82.542188-0.373517-165.135542 1.299635-247.616329-1.059152-50.568091-1.448019-80.454585-35.688802-80.976485-86.44621-0.614001-59.568321-0.562834-119.146875-0.056283-178.715195 0.450267-53.510178 32.286214-84.624674 86.482027-84.941908 60.422805-0.347934 120.850727-0.368401 181.268416 0.010233 51.576076 0.317234 82.409154 30.848429 83.176655 82.414271C427.774427 55.187168 427.313926 94.339959 427.293459 133.487633zM562.834158 421.438705c0 31.099146 0 61.53824 0 91.977335 0 74.104792-0.07675 148.204467 0.020467 222.309259 0.097217 73.925708 55.643832 132.363244 129.170439 133.770329 64.710578 1.243352 129.47744 1.166602 194.193134 0.010233 67.831749-1.207535 123.383481-54.61538 125.685984-123.255564 2.312737-68.906251 2.435537-138.022286-0.04605-206.918303-2.435537-67.509399-55.239614-118.287273-122.72343-119.192925-104.743437-1.401969-209.52269-0.486084-314.286594-0.470734C571.645071 419.668336 568.442033 420.58422 562.834158 421.438705zM757.436626 466.987338c40.027742 0 80.070834-0.823785 120.072993 0.209784 49.867106 1.289402 83.427372 31.380563 84.281857 77.195263 1.238235 66.399081 1.222885 132.854445-0.133034 199.248409-0.885185 43.21543-34.378934 75.03091-77.497147 75.496527-63.011842 0.680518-126.039035 0.670284-189.050877 0.025583-47.917654-0.491201-82.731505-33.606316-83.468306-81.667236-1.253585-81.733753-0.13815-163.503323-0.527017-245.257543-0.086983-18.650277 7.966662-25.767571 26.253655-25.475921C677.381142 467.401789 717.408884 466.956638 757.436626 466.987338zM475.72278 420.640504c-9.486314-0.475851-16.127757-1.089852-22.7692-1.094968-95.47714-0.0614-190.959396-0.347934-286.436536 0.04605C79.405666 419.954869 26.202488 472.958497 25.716404 559.39959 25.394054 616.511907 25.235437 673.634458 25.762454 730.746775 26.524839 813.775046 83.325039 869.644011 166.38401 869.756578c57.966802 0.07675 115.93872 0.10745 173.905521-0.010233 80.127117-0.163734 135.341148-54.901914 135.407665-134.271763C475.78418 631.544696 475.72278 527.609694 475.72278 420.640504zM427.283226 616.675641c0 40.068675 0.818668 80.152701-0.204667 120.195793-1.309869 51.120692-33.637016 82.18402-84.47629 82.398921-58.821286 0.250717-117.642572 0.179084-176.463858 0.025583-56.329466-0.148384-89.372948-32.327147-89.874382-88.370079-0.516784-57.961685-0.414451-115.93872-0.051167-173.905521 0.353051-55.720582 32.572748-89.106881 88.774297-89.807865 78.418148-0.977285 156.856763 0.10745 235.280028-0.506551 19.816879-0.1535 27.563524 7.628961 27.236057 27.21559C426.812492 534.829321 427.293459 575.757598 427.283226 616.675641z"  horiz-adv-x="1024" />

    
    <glyph glyph-name="biaoqing" unicode="&#58900;" d="M512 809.984C278.528 809.984 86.016 617.472 86.016 384c0-233.472 192.512-425.984 425.984-425.984 233.472 0 425.984 192.512 425.984 425.984C937.984 617.472 745.472 809.984 512 809.984zM512-1.024c-212.992 0-385.024 172.032-385.024 385.024s172.032 385.024 385.024 385.024 385.024-172.032 385.024-385.024S724.992-1.024 512-1.024zM700.416 281.6c-45.056-57.344-114.688-94.208-188.416-94.208-73.728 0-139.264 32.768-188.416 90.112-8.192 8.192-20.48 12.288-28.672 4.096C286.72 277.504 286.72 261.12 294.912 252.928c53.248-69.632 131.072-106.496 217.088-106.496 86.016 0 167.936 40.96 221.184 106.496 8.192 8.192 4.096 20.48-4.096 28.672C716.8 289.792 704.512 289.792 700.416 281.6zM331.776 404.48c16.384 0 28.672 12.288 28.672 28.672l0 32.768c0 16.384-12.288 28.672-28.672 28.672S299.008 486.4 299.008 470.016l0-32.768C299.008 420.864 311.296 404.48 331.776 404.48zM688.128 404.48c16.384 0 28.672 12.288 28.672 28.672l0 32.768c0 16.384-12.288 28.672-28.672 28.672-16.384 0-28.672-12.288-28.672-28.672l0-32.768C659.456 420.864 671.744 404.48 688.128 404.48z"  horiz-adv-x="1024" />

    
    <glyph glyph-name="tel" unicode="&#58946;" d="M776.676-114.080h-479.92c-28.332 0-51.33 22.999-51.33 51.33v891.12c0 28.332 22.999 51.33 51.33 51.33h479.92c28.332 0 51.33-22.999 51.33-51.33v-891.12c0-28.332-22.999-51.33-51.33-51.33v0zM536.576-62.751c19.073 0 34.221 15.426 34.221 34.221s-15.426 34.221-34.221 34.221-34.221-15.426-34.221-34.221 15.426-34.221 34.221-34.221v0zM776.676 777.040h-479.92v-719.742h479.641v719.742h0.279z"  horiz-adv-x="1024" />

    
    <glyph glyph-name="shouji" unicode="&#59014;" d="M715.525881 829.138196 308.474119 829.138196c-40.377616 0-73.17151-32.79287-73.17151-73.116251l0-743.988632c0-40.322357 32.793894-73.170486 73.17151-73.170486l407.052786 0c40.376593 0 73.170486 32.848129 73.170486 73.170486L788.697391 756.021945C788.696368 796.345326 755.902474 829.138196 715.525881 829.138196zM308.474119 778.611429l407.052786 0c12.495592 0 22.644743-10.149151 22.644743-22.589484l0-601.793072L285.829376 154.228873 285.829376 756.021945C285.829376 768.462279 295.978527 778.611429 308.474119 778.611429zM444.175777 56.448896c0 38.631856 31.266098 69.842695 69.842695 69.842695 38.576597 0 69.842695-31.210839 69.842695-69.842695 0-33.666774-24.335245-60.45693-56.092529-67.060325l-27.500331 0C468.512045-4.008035 444.175777 22.782122 444.175777 56.448896z"  horiz-adv-x="1024" />

    
    <glyph glyph-name="shipin1" unicode="&#59167;" d="M493.572336 296.920254m-28.183486 0a28.183486 28.183486 0 1 1 56.366972 0 28.183486 28.183486 0 1 1-56.366972 0ZM572.341567 375.689485m-28.183487 0a28.183486 28.183486 0 1 1 56.366973 0 28.183486 28.183486 0 1 1-56.366973 0ZM494.294989 458.794637m-28.183486 0a28.183486 28.183486 0 1 1 56.366973 0 28.183486 28.183486 0 1 1-56.366973 0ZM822.379675 736.293578H205.956246c-25.292872 0-45.52717-20.234298-45.52717-45.52717v-614.978123c0-25.292872 20.234298-45.52717 45.52717-45.52717h616.423429c25.292872 0 45.52717 20.234298 45.52717 45.52717V690.766408c0.722653 24.570219-20.234298 45.52717-45.52717 45.52717z m-530.427664-656.169372H211.01482V193.580805h80.937191v-113.456599z m0 164.042343H211.01482V364.849682h80.937191v-120.683133z m0 171.268878H211.01482V536.841214h80.937191v-121.405787z m0 171.991531H211.01482V685.707833h80.937191v-98.280875z m403.24065-507.302752H342.537756V685.707833h352.654905v-605.583627z m122.851093 0h-72.265349V193.580805h72.265349v-113.456599z m0 164.042343h-72.265349V364.849682h72.265349v-120.683133z m0 171.268878h-72.265349V536.841214h72.265349v-121.405787z m0 171.991531h-72.265349V685.707833h72.265349v-98.280875z"  horiz-adv-x="1024" />

    
    <glyph glyph-name="tupian" unicode="&#59170;" d="M306.405081 423.384615c47.695131 0 86.718419 39.023289 86.718419 86.71842s-39.023289 86.718419-86.718419 86.718419-86.718419-39.023289-86.718419-86.718419 39.023289-86.718419 86.718419-86.71842z m0 122.851094c20.234298 0 36.132675-16.62103 36.132675-36.132674s-16.62103-36.132675-36.132675-36.132675-36.132675 16.62103-36.132675 36.132675 16.62103 36.132675 36.132675 36.132674zM881.637262 721.840508H150.311927c-44.081863 0-79.491884-35.410021-79.491885-79.491884v-521.033169c0-44.081863 35.410021-79.491884 79.491885-79.491884H881.637262c44.081863 0 79.491884 35.410021 79.491884 79.491884V642.348624c0 43.35921-35.410021 79.491884-79.491884 79.491884z m28.90614-601.247706c0-15.898377-13.007763-28.90614-28.90614-28.90614H150.311927c-15.898377 0-28.90614 13.007763-28.90614 28.90614V642.348624c0 15.898377 13.007763 28.90614 28.90614 28.90614H881.637262c15.898377 0 28.90614-13.007763 28.90614-28.90614v-521.755822zM757.340861 463.853211c-10.117149 10.117149-26.015526 10.117149-36.132675 0L629.431193 372.076217 509.470713 492.036697c-10.117149 10.117149-26.015526 10.117149-35.410021 0L166.932957 185.631616c-10.117149-10.117149-10.117149-26.015526 0-36.132675 5.058574-5.058574 11.562456-7.226535 18.066337-7.226535s13.007763 2.16796 18.066338 7.226535l288.338743 289.061398 166.210304-166.210304c10.117149-10.117149 26.015526-10.117149 35.410021 0 10.117149 10.117149 10.117149 26.015526 0 36.132675l-28.90614 28.90614 73.710657 73.710656 88.886379-88.88638c5.058574-5.058574 11.562456-7.226535 18.066338-7.226535s13.007763 2.16796 18.066337 7.226535c10.117149 10.117149 10.117149 26.015526 0 36.132675l-105.50741 105.50741zM346.873677 196.471418m-27.460833 0a27.460833 27.460833 0 1 1 54.921666 0 27.460833 27.460833 0 1 1-54.921666 0ZM414.803105 264.400847m-27.460833 0a27.460833 27.460833 0 1 1 54.921666 0 27.460833 27.460833 0 1 1-54.921666 0ZM482.732534 333.052929m-27.460833 0a27.460833 27.460833 0 1 1 54.921665 0 27.460833 27.460833 0 1 1-54.921665 0Z"  horiz-adv-x="1024" />

    
    <glyph glyph-name="tubiaotupianshu" unicode="&#58919;" d="M865.6 768H158.4C124 768 96 740.992 96 707.808v-647.616C96 27.008 124 0 158.4 0h707.2c34.4 0 62.4 27.008 62.4 60.192V707.808C928 740.992 900 768 865.6 768z m20.8-707.808a20.448 20.448 0 0 0-20.8-20.064H158.4a20.448 20.448 0 0 0-20.8 20.064v45.696l123.232 127.328c8.832 9.12 26.176 11.264 37.12 4.512l107.712-66.24c27.392-16.8 67.2-13.056 90.688 8.608l175.136 161.664a23.2 23.2 0 0 0 30.752-0.192l184.16-174.656v-106.72z m0 163.008l-155.008 146.976c-24.256 23.04-64.064 23.264-88.672 0.576l-175.136-161.664c-9.568-8.832-28.384-10.624-39.584-3.744l-107.712 66.24c-27.808 17.12-67.328 12.32-89.856-11.008L137.6 164.672V707.808c0 11.04 9.312 20.032 20.8 20.032h707.2c11.488 0 20.8-8.992 20.8-20.032v-484.608zM350.752 557.312m-72 0a72 72 0 1 1 144 0 72 72 0 1 1-144 0Z"  horiz-adv-x="1024" />

    
    <glyph glyph-name="liulan1" unicode="&#58931;" d="M510.418097 535.324108c-81.591374 0-147.98317-66.391796-147.98317-147.997505 0-81.591374 66.391796-147.984194 147.98317-147.984193S658.402291 305.73523 658.402291 387.326603c0 81.605708-66.391796 147.997504-147.984194 147.997505z m0-239.841042c-50.643416 0-91.843538 41.200122-91.843537 91.843537 0 50.643416 41.200122 91.857872 91.843537 91.857872 50.643416 0 91.843538-41.214456 91.843538-91.857872 0.001024-50.643416-41.199098-91.843538-91.843538-91.843537zM952.57376 398.812549c-66.323196 148.10706-248.1468 251.546099-442.155663 251.546099S134.586654 546.919609 68.263458 398.812549l-5.139904-11.471611 5.139904-11.471611C124.868959 249.458397 294.918905 121.499352 510.418097 121.499352s385.549138 127.959045 442.155663 254.369975l5.139904 11.471611-5.139904 11.471611zM510.418097 177.638984c-184.948502 0-331.19209 103.65815-385.412962 209.687619 53.699714 104.645176 199.750812 206.892412 385.412962 206.892412S842.131345 491.971779 895.831059 387.326603C841.610188 281.297135 695.367623 177.638984 510.418097 177.638984z"  horiz-adv-x="1024" />

    
    <glyph glyph-name="wodefankui" unicode="&#58889;" d="M883.2 812.8h-742.4c-51.2 0-92.8-41.6-92.8-89.6V140.8c0-48 41.6-89.6 92.8-89.6h256s6.4-6.4 16-19.2c3.2-3.2 6.4-6.4 9.6-12.8 0 0 6.4-9.6 9.6-12.8 28.8-44.8 51.2-67.2 86.4-67.2s60.8 22.4 89.6 67.2c22.4 35.2 28.8 44.8 28.8 44.8h249.6c51.2 0 92.8 41.6 92.8 89.6V723.2c-3.2 51.2-44.8 89.6-96 89.6z m48-672c0-25.6-19.2-44.8-44.8-44.8H633.6c-6.4 0-9.6 0-16-3.2-9.6-6.4-19.2-12.8-28.8-28.8-3.2-6.4-22.4-35.2-22.4-35.2-19.2-32-35.2-44.8-48-44.8s-25.6 12.8-48 44.8c-3.2 3.2-6.4 12.8-9.6 12.8-3.2 6.4-6.4 9.6-9.6 12.8-19.2 25.6-32 38.4-54.4 38.4h-256c-25.6 0-44.8 19.2-44.8 44.8V720c0 25.6 22.4 44.8 48 44.8h742.4c25.6 0 48-19.2 48-44.8V140.8zM220.8 412.8a51.2 51.2 0 1 1 102.4 0 51.2 51.2 0 1 1-102.4 0z m240 0a51.2 51.2 0 1 1 102.4 0 51.2 51.2 0 1 1-102.4 0z m236.8 0a51.2 51.2 0 1 1 102.4 0 51.2 51.2 0 1 1-102.4 0z"  horiz-adv-x="1024" />

    
    <glyph glyph-name="xiaoxi1" unicode="&#59227;" d="M505.6-67.2c-9.6 0-22.4 6.4-28.8 12.8l-108.8 112H105.6c-57.6 0-105.6 44.8-105.6 105.6V729.6c0 57.6 48 105.6 105.6 105.6h812.8c57.6 0 105.6-48 105.6-105.6V160c0-60.8-48-105.6-105.6-105.6-16 0-25.6 9.6-25.6 25.6s9.6 25.6 25.6 25.6c25.6 0 51.2 25.6 51.2 51.2V729.6c0 25.6-25.6 51.2-51.2 51.2H105.6c-25.6 0-51.2-25.6-51.2-51.2V160c0-28.8 25.6-51.2 51.2-51.2h275.2c9.6 0 12.8-3.2 19.2-9.6l112-112 108.8 112c6.4 6.4 9.6 9.6 19.2 9.6h102.4c16 0 25.6-9.6 25.6-25.6s-9.6-25.6-25.6-25.6h-92.8l-108.8-112c-9.6-6.4-19.2-12.8-35.2-12.8zM323.2 454.4c0-28.8-25.6-54.4-54.4-54.4s-54.4 25.6-54.4 54.4 25.6 54.4 54.4 54.4 54.4-22.4 54.4-54.4M566.4 457.6c0-28.8-25.6-54.4-54.4-54.4-28.8 0-54.4 25.6-54.4 54.4S483.2 512 512 512c28.8 0 54.4-25.6 54.4-54.4M809.6 454.4c0-28.8-25.6-54.4-54.4-54.4-28.8 0-54.4 25.6-54.4 54.4s25.6 54.4 54.4 54.4c28.8 0 54.4-22.4 54.4-54.4"  horiz-adv-x="1024" />

    
    <glyph glyph-name="kaixin" unicode="&#59178;" d="M781.91108 85.905434m-27.460833 0a27.460833 27.460833 0 1 1 54.921665 0 27.460833 27.460833 0 1 1-54.921665 0ZM846.949894 160.338744m-27.460833 0a27.460833 27.460833 0 1 1 54.921666 0 27.460833 27.460833 0 1 1-54.921666 0ZM891.031757 246.33451m-27.460833 0a27.460833 27.460833 0 1 1 54.921666 0 27.460833 27.460833 0 1 1-54.921666 0ZM514.529287 813.617502c-235.585039 0-427.088215-191.503176-427.088214-427.088215s191.503176-427.088215 427.088214-427.088214c69.374735 0 138.749471 17.343684 200.175018 49.863091 12.285109 6.503881 17.343684 21.679605 10.117149 33.964714-6.503881 12.285109-21.679605 17.343684-33.964714 10.117149-54.199012-28.90614-114.901905-43.35921-176.327453-43.35921-207.401553 0-376.50247 169.100917-376.50247 376.50247s169.100917 376.50247 376.50247 376.50247c207.401553 0 376.50247-169.100917 376.50247-376.50247 0-13.730416-0.722653-28.183486-2.16796-41.913902-1.445307-13.730416 8.671842-26.738179 22.402258-28.183487 13.730416-1.445307 26.738179 8.671842 28.183486 22.402259 1.445307 15.898377 2.890614 31.796754 2.890614 47.69513-0.722653 235.585039-192.225829 427.088215-427.810868 427.088215zM725.544107 268.736768c-10.839802 8.671842-26.738179 6.503881-35.410021-4.335921-42.636556-55.644319-107.675371-87.441073-177.772759-87.441073-67.206775 0-130.077629 29.628793-172.714185 80.937191-8.671842 10.839802-24.570219 12.285109-35.410021 3.613268-10.839802-8.671842-12.285109-24.570219-3.613268-35.410021 52.753705-62.870854 129.354975-99.003529 211.737474-99.003529 85.995766 0 165.48765 39.023289 218.241355 107.675371 7.949188 9.394495 5.781228 25.292872-5.058575 33.964714zM379.393084 446.509527c13.730416 0 25.292872 11.562456 25.292872 25.292872v41.913903c0 13.730416-11.562456 25.292872-25.292872 25.292872s-25.292872-11.562456-25.292872-25.292872v-41.913903c0-13.730416 10.839802-25.292872 25.292872-25.292872zM669.177135 471.802399v41.913903c0 13.730416-11.562456 25.292872-25.292872 25.292872s-25.292872-11.562456-25.292873-25.292872v-41.913903c0-13.730416 11.562456-25.292872 25.292873-25.292872s25.292872 11.562456 25.292872 25.292872z"  horiz-adv-x="1024" />

    
    <glyph glyph-name="camera" unicode="&#58896;" d="M663.154 684.7c8.903 0 8.903 0 17.892-18.773 2.446-5.106 7.68-16.839 13.995-31.388l7.438-17.109h99.143c29.832-0.016 54.016-24.175 54.073-53.996l0-376.823c-0.065-29.818-24.247-53.965-54.072-53.973l-579.243-0c-29.825 0.008-54.008 24.156-54.073 53.967l-0 376.824c0.057 29.824 24.242 53.98 54.072 53.988l82.703 0 18.489 0.341 7.566 16.697c1.792 3.94 6.542 14.421 9.941 22.969 10.837 27.292 13.867 27.292 21.959 27.292h300.117M663.154 713.145h-300.132c-23.879 0-34.29-9.714-48.398-45.227-3.243-8.164-8.092-18.816-9.557-22.059h-82.702c-45.483 0-82.517-36.978-82.517-82.432v-376.818c0-45.454 37.006-82.418 82.517-82.418h579.243c45.483 0 82.517 36.978 82.517 82.418v376.818c-0.065 45.533-36.979 82.422-82.515 82.446l-80.486 0c-2.020 4.636-10.439 24.007-14.45 32.356-11.876 24.832-19.143 34.916-43.52 34.916zM512 191.474c-101.106 0-183.381 82.261-183.381 183.381s82.276 183.367 183.381 183.367 183.381-82.261 183.381-183.381-82.276-183.367-183.381-183.367zM512 529.778c-85.433 0-154.937-69.504-154.937-154.937s69.504-154.923 154.937-154.923 154.937 69.504 154.937 154.937-69.504 154.923-154.937 154.923z"  horiz-adv-x="1024" />

    
    <glyph glyph-name="shiping-xue" unicode="&#58926;" d="M520.896 80.704c197.952 0 358.976 166.080 358.976 370.112s-161.088 370.112-358.976 370.112-358.848-166.016-358.848-370.112 160.96-370.112 358.848-370.112zM520.896 756.928c162.688 0 294.976-137.344 294.976-306.112 0-168.832-132.288-306.112-294.976-306.112-162.624 0-294.848 137.344-294.848 306.112-0.064 168.768 132.224 306.112 294.848 306.112zM824.256 149.888c-3.724 1.634-8.064 2.585-12.627 2.585-17.744 0-32.128-14.384-32.128-32.128 0-11.337 5.872-21.302 14.74-27.021 22.015-11.66 27.391-20.812 27.647-22.604-1.92-20.864-106.688-69.824-300.992-69.824-191.488 0-299.072 49.536-300.864 69.824 0.128 1.664 5.056 10.432 26.176 21.888 9.622 5.638 15.981 15.927 15.981 27.702 0 17.673-14.327 32-32 32-5.269 0-10.241-1.274-14.624-3.53-49.164-26.604-59.532-57.132-59.532-78.060 0-91.968 189.12-133.824 364.864-133.824 175.808 0 364.992 41.856 364.992 133.824 0 21.248-10.688 52.224-61.632 79.168zM520.96 277.184c0.019-0 0.041-0 0.064-0 95.894 0 173.632 77.738 173.632 173.632 0 95.872-77.701 173.596-173.565 173.632-0.023 0-0.045 0-0.068 0-95.894 0-173.632-77.738-173.632-173.632 0-95.872 77.701-173.596 173.565-173.632zM460.992 592.832c39.199 0 70.976-31.777 70.976-70.976 0-39.199-31.777-70.976-70.976-70.976-39.199 0-70.976 31.777-70.976 70.976 0 39.199 31.777 70.976 70.976 70.976z"  horiz-adv-x="1024" />

    
    <glyph glyph-name="dingwei" unicode="&#58969;" d="M500.622222-52.509347c-5.05679 0-9.752381 2.167196-13.364374 5.779188L238.391534 223.085714c-0.722399 1.083598-1.805996 2.167196-2.167195 3.250794a353.34321 353.34321 0 0 0-88.493828 234.057143c0 195.047619 158.56649 353.614109 353.61411 353.614109s353.614109-158.56649 353.614109-353.614109c0-94.634215-37.203527-183.850441-104.386596-250.672311l-236.585538-256.451499c-3.611993-3.611993-8.307584-5.779189-13.364374-5.779188m-232.973545 297.267019l232.973545-252.478307 223.221164 242.003527c0 0.361199 0.361199 0.361199 0.722399 0.722399 60.681481 59.959083 93.911817 140.145326 93.911816 225.38836 0 174.820459-142.312522 317.49418-317.494179 317.49418-174.820459 0-317.49418-142.312522-317.49418-317.49418 0-78.741446 28.895944-154.232099 81.992239-212.746385 0.722399-0.722399 1.444797-1.805996 2.167196-2.889594m233.334745 90.661023c-71.51746 0-130.031746 58.153086-130.031747 130.031746 0 71.51746 58.153086 130.031746 130.031747 130.031746 71.51746 0 130.031746-58.153086 130.031746-130.031746s-58.153086-130.031746-130.031746-130.031746m0 223.582363c-51.651499 0-93.911817-42.260317-93.911817-93.911816s42.260317-93.911817 93.911817-93.911817 93.911817 42.260317 93.911816 93.911817c0 52.012698-41.899118 93.911817-93.911816 93.911816"  horiz-adv-x="1024" />

    
    <glyph glyph-name="suo" unicode="&#58967;" d="M800.421 459.475h-63.661v148.673c0 124.507-100.762 225.757-224.732 225.757-123.98 0-224.857-101.25-224.857-225.766v-148.662h-63.593c-30.667 0-55.532-24.952-55.532-55.752v-407.048c0-30.848 24.865-55.82 55.532-55.82h576.9c30.667 0 55.465 24.97 55.465 55.82v407.048c0 30.802-24.855 55.752-55.532 55.752zM543.203 189.591v-88.88c-0.016-4.026-3.264-7.287-7.282-7.325h-47.733c-4.039 0.022-7.307 3.287-7.334 7.322v88.882c-22.423 11.518-37.953 34.602-37.953 61.659 0 38.288 30.945 69.425 69.070 69.425 38.183 0 69.138-31.136 69.138-69.415 0.057-27.067-15.473-50.152-37.905-61.659zM650.514 459.475h-276.989v144.986c0 76.691 62.196 139.146 138.552 139.146 76.366 0 138.447-62.454 138.447-139.146v-144.986z"  horiz-adv-x="1024" />

    
    <glyph glyph-name="weibo" unicode="&#59033;" d="M708.486 391.161c-12.986 1.214-24.758 8.374-16.142 23.18s24.515 57.89-6.068 88.231c-30.583 30.462-97.454 18.932-144.786-0.729-47.21-19.661-44.661-5.947-43.205 7.524 1.578 14.199 27.065 93.571-50.851 103.158-102.066 12.5-233.017-113.838-279.257-186.656-69.905-109.955-58.861-184.351-58.861-184.351h0.485c8.374-102.673 159.593-184.471 344.914-184.471 159.349 0 293.578 60.56 333.263 142.845 0 0 0.122 0.364 0.485 0.971 4.127 8.86 7.282 17.84 9.223 27.185 5.583 22.087 9.83 54.128-0.607 85.682-18.569 55.827-75.609 76.217-88.595 77.429zM431.779 101.953c-131.922 0-238.964 70.876-238.964 158.257s106.921 158.257 238.964 158.257c131.922 0 238.964-70.876 238.964-158.257 0-87.503-107.042-158.257-238.964-158.257zM756.668 452.691c2.427-1.092 4.976-1.578 7.524-1.578 7.524 0 14.806 4.491 17.84 11.893 4.976 11.773 7.524 24.272 7.524 37.259 0 52.671-42.841 95.513-95.513 95.513-12.865 0-25.364-2.548-37.137-7.524-9.83-4.127-14.442-15.534-10.316-25.486 4.127-9.83 15.534-14.442 25.486-10.316 7.039 2.913 14.442 4.491 22.087 4.491 31.312 0 56.676-25.486 56.676-56.676 0-7.646-1.456-15.050-4.491-22.087-4.247-9.952 0.364-21.36 10.316-25.486zM692.953 714.957c-21.724 0-43.205-3.155-63.837-9.223-15.413-4.611-24.151-20.753-19.661-36.166 4.611-15.413 20.753-24.151 36.166-19.661 15.292 4.491 31.19 6.796 47.331 6.796 91.387 0 165.782-74.396 165.782-165.782 0-16.384-2.427-32.646-7.039-48.181-4.611-15.413 4.005-31.676 19.419-36.287 2.791-0.85 5.703-1.214 8.496-1.214 12.5 0 24.030 8.131 27.914 20.631 6.311 20.995 9.588 42.841 9.588 65.051-0.122 123.548-100.61 224.036-224.157 224.036zM409.691 360.699c-70.39 0-127.431-49.881-127.431-111.533s57.040-111.533 127.431-111.533 127.431 49.881 127.431 111.533-57.040 111.533-127.431 111.533zM368.063 176.711c-24.637 0-44.661 20.025-44.661 44.661s20.025 44.661 44.661 44.661c24.637 0 44.661-20.025 44.661-44.661 0-24.637-20.025-44.661-44.661-44.661zM451.562 257.175c-5.34-9.345-16.142-13.229-24.030-8.617-7.888 4.491-9.83 15.777-4.491 25.122 5.34 9.345 16.142 13.229 24.030 8.617 7.888-4.611 9.83-15.899 4.491-25.122z"  horiz-adv-x="1024" />

    
    <glyph glyph-name="shoucang1" unicode="&#58899;" d="M968.533333 450.133333c10.666667 12.8 14.933333 29.866667 10.666667 44.8-4.266667 14.933333-17.066667 27.733333-34.133333 29.866667l-264.533334 53.333333-130.133333 241.066667c-8.533333 14.933333-23.466667 23.466667-38.4 23.466667s-32-8.533333-38.4-23.466667L341.333333 578.133333 78.933333 526.933333c-17.066667-2.133333-29.866667-14.933333-34.133333-29.866666-4.266667-14.933333-2.133333-34.133333 10.666667-44.8l183.466666-200.533334v-2.133333L204.8-23.466667c-2.133333-17.066667 4.266667-32 19.2-42.666666 8.533333-6.4 17.066667-8.533333 25.6-8.533334 6.4 0 12.8 2.133333 19.2 4.266667L512 46.933333l243.2-117.333333c14.933333-6.4 32-6.4 44.8 4.266667 12.8 10.666667 21.333333 25.6 19.2 42.666666l-34.133333 270.933334v2.133333l183.466666 200.533333z m-213.333333-170.666666c-8.533333-10.666667-12.8-23.466667-10.666667-36.266667l34.133334-270.933333c0-2.133333 0-2.133333-2.133334-2.133334L531.2 85.333333c-6.4 2.133333-12.8 4.266667-19.2 4.266667-6.4 0-12.8-2.133333-19.2-4.266667l-243.2-115.2-2.133333 2.133334 34.133333 270.933333c2.133333 12.8-2.133333 25.6-10.666667 36.266667L85.333333 480v2.133333c0 2.133333 2.133333 2.133333 2.133334 2.133334l262.4 51.2c12.8 2.133333 23.466667 10.666667 29.866666 23.466666l130.133334 238.933334c0 2.133333 2.133333 2.133333 4.266666 0l130.133334-241.066667c6.4-12.8 17.066667-19.2 29.866666-23.466667l262.4-51.2s2.133333 0 2.133334-2.133333v-2.133333l-183.466667-198.4z"  horiz-adv-x="1024" />

    
    <glyph glyph-name="shouji1" unicode="&#58930;" d="M754.9 831.6H269.1c-10.3 0-18.7-8.4-18.7-18.7v-857.8c0-10.3 8.4-18.7 18.7-18.7h485.7c10.3 0 18.7 8.4 18.7 18.7V812.9c0.1 10.3-8.3 18.7-18.6 18.7z m-18.7-37.4v-721.6H287.8V794.2h448.4zM475 20.1c0 19.3 15.7 35 35 35s35-15.7 35-35-15.7-35-35-35c-19.3-0.1-35 15.6-35 35z"  horiz-adv-x="1024" />

    
    <glyph glyph-name="fenxiang" unicode="&#58880;" d="M710.558242 433.640584h173.918051c13.608949 0 24.64019-11.04352 24.64019-24.65554v-397.445987c0-13.617136-11.226692-24.65554-24.64019-24.65554H139.523707c-13.608949 0-24.64019 11.04352-24.64019 24.65554V408.984021c0 13.617136 11.227716 24.65554 24.64019 24.655539h173.918051c13.707187 0 24.820292 11.112082 24.820292 24.820292 0 13.707187-11.113105 24.820292-24.820292 24.820292H114.875331c-27.545356 0-49.632397-22.125927-49.632398-49.420573v-447.196065c0-27.338648 22.221094-49.420573 49.632398-49.420573h794.248315c27.545356 0 49.633421 22.125927 49.633421 49.420573V433.859571c0 27.338648-22.222117 49.420573-49.633421 49.420573H710.558242c-13.707187 0-24.820292-11.113105-24.820292-24.820292s11.113105-24.819269 24.820292-24.819268zM516.65502 830.321138a25.212218 25.212218 0 0 1-9.858532-0.103354c-7.902994 1.678222-16.420995-0.560772-22.534226-6.674003L306.080094 645.361613c-9.599635-9.599635-9.577123-25.293059 0.115633-34.984792 9.760295-9.761318 25.356504-9.744945 34.985816-0.115634l146.000212 146.000212V110.936881c0-13.670348 11.112082-24.774243 24.820292-24.774243 13.802354 0 24.820292 11.091616 24.820291 24.774243V755.013989l144.751779-144.752802c9.599635-9.599635 25.293059-9.578146 34.985815 0.115634 9.760295 9.760295 9.744945 25.356504 0.115634 34.984792L538.491351 823.543781c-5.910617 5.909593-14.129812 8.173147-21.836331 6.777357z"  horiz-adv-x="1024" />

    
    <glyph glyph-name="wenben" unicode="&#58888;" d="M768.2 723.7H257c-46.7 0-85.2-41.9-85.2-88.7v-508.2c0-46.8 37.9-84.7 84.6-84.7h507.9c46.7 0 89.1 38.4 89.1 85.2V638.5c0 46.8-38.4 85.2-85.2 85.2zM683 255.1H342.2c-11.8 0-21.3 9.5-21.3 21.3s9.5 21.3 21.3 21.3H683c11.8 0 21.3-9.5 21.3-21.3s-9.5-21.3-21.3-21.3z m0 127.8H342.2c-11.8 0-21.3 9.5-21.3 21.3s9.5 21.3 21.3 21.3H683c11.8 0 21.3-9.5 21.3-21.3s-9.5-21.3-21.3-21.3z m0 127.8H342.2c-11.8 0-21.3 9.5-21.3 21.3s9.5 21.3 21.3 21.3H683c11.8 0 21.3-9.5 21.3-21.3s-9.5-21.3-21.3-21.3z"  horiz-adv-x="1024" />

    
    <glyph glyph-name="tuichuquanping" unicode="&#59642;" d="M142.4 799.2l-44.8-44.8 173.6-174.4-68-68H384V692.8l-67.2-67.2zM752.8 580l173.6 174.4-44.8 44.8-174.4-173.6-67.2 67.2V512h180.8zM270.4 188.8l-169.6-170.4 44.8-49.6 170.4 174.4 68-68V256H203.2zM820.8 256H640v-180.8l68 68 170.4-174.4 44.8 49.6-169.6 170.4z"  horiz-adv-x="1024" />

    
    <glyph glyph-name="shoucang" unicode="&#59047;" d="M739.328 82.944c-2.048 10.24 6.144 22.528 16.384 24.576s22.528-6.144 24.576-16.384l12.288-65.536c6.144-38.912-24.576-61.44-59.392-43.008l-221.184 112.64-219.136-114.688c-34.816-18.432-65.536 4.096-59.392 43.008l40.96 243.712-178.176 172.032c-28.672 28.672-16.384 63.488 22.528 69.632l245.76 34.816 110.592 221.184c18.432 34.816 55.296 34.816 73.728 0l110.592-221.184 245.76-34.816c38.912-6.144 51.2-40.96 22.528-69.632l-178.176-172.032 12.288-65.536c2.048-10.24-6.144-22.528-16.384-24.576-10.24-2.048-22.528 6.144-24.576 16.384l-14.336 86.016 192.512 188.416-266.24 38.912-120.832 241.664-118.784-241.664-266.24-38.912 192.512-188.416-45.056-264.192 237.568 124.928 237.568-124.928-10.24 67.584z"  horiz-adv-x="1024" />

    
    <glyph glyph-name="dingdan" unicode="&#58945;" d="M53.6-127.2c-6.4 0-12.8 2.4-17.6 8-4.8 4.8-7.2 11.2-6.4 18.4L80 673.6c0.8 12.8 11.2 22.4 24 22.4h211.2v3.2c0 52.8 20.8 101.6 57.6 139.2C410.4 874.4 459.2 895.2 512 895.2c108 0 196.8-88 196.8-196.8 0-0.8-0.8-1.6-0.8-2.4v-0.8H920c12.8 0 23.2-9.6 24-22.4l49.6-768.8c0.8-2.4 0.8-4 0.8-6.4-0.8-13.6-11.2-24.8-24.8-24.8H53.6z m25.6 48H944l-46.4 726.4H708v-57.6h0.8c12.8-8.8 20-21.6 20-36 0-24.8-20-44.8-44.8-44.8s-44.8 20-44.8 44.8c0 14.4 7.2 27.2 20 36h0.8v57.6H363.2v-57.6h0.8c12.8-8.8 20-21.6 20-36 0-24.8-20-44.8-44.8-44.8-24.8 0-44.8 20-44.8 44.8 0 14.4 7.2 27.2 20 36h0.8v57.6H125.6l-46.4-726.4zM512 846.4c-81.6 0-148.8-66.4-148.8-148.8v-3.2h298.4l-0.8 1.6v1.6c0 82.4-67.2 148.8-148.8 148.8z"  horiz-adv-x="1024" />

    
    <glyph glyph-name="fenxiang2" unicode="&#59502;" d="M763.84 0c-47.128 0-85.333 38.205-85.333 85.333s38.205 85.333 85.333 85.333c47.128 0 85.333-38.205 85.333-85.333 0-47.128-38.205-85.333-85.333-85.333M329.92 337.152c-14.895-26.231-42.641-43.638-74.453-43.638-47.128 0-85.333 38.205-85.333 85.333 0 16.097 4.457 31.152 12.204 44 14.935 24.769 42.098 41.333 73.13 41.333 47.128 0 85.333-38.205 85.333-85.333 0-15.317-4.035-29.691-11.101-42.117M763.84 768c47.128 0 85.333-38.205 85.333-85.333s-38.205-85.333-85.333-85.333c-47.128 0-85.333 38.205-85.333 85.333 0 47.128 38.205 85.333 85.333 85.333M763.84 213.333c-0.021 0-0.047 0-0.072 0-39.16 0-74.203-17.626-97.628-45.378l-289.885 167.063c4.932 13.101 7.787 28.245 7.787 44.055 0 0.105 0 0.209 0 0.314 0 0.072 0 0.177 0 0.281 0 15.81-2.855 30.953-8.077 44.942l295.544 169.566c23.265-24.363 56.001-39.509 92.275-39.509 0.020 0 0.039 0 0.059 0 70.689 0 127.997 57.308 127.997 128 0 70.692-57.308 128-128 128-70.692 0-128-57.308-128-128 0-18.965 4.224-36.907 11.627-53.099l-292.288-168.747c-23.653 28.833-59.285 47.084-99.18 47.084-70.692 0-128-57.308-128-128 0-0.188 0-0.376 0.001-0.564-0.001-0.123-0.001-0.304-0.001-0.484 0-70.692 57.308-128 128-128 39.895 0 75.526 18.251 99.001 46.86l289.373-166.752c-5.397-13.568-8.529-29.29-8.533-45.743 0-70.582 57.308-127.889 128-127.889 70.692 0 128 57.308 128 128 0 70.692-57.308 128-128 128z"  horiz-adv-x="1024" />

    
    <glyph glyph-name="dkw_bofang" unicode="&#58881;" d="M853.333333 391.893333l21.333334-2.346666c0 29.226667-4.906667 42.666667-51.413334 77.226666C782.506667 496.64 394.666667 742.4 351.573333 766.08a167.253333 167.253333 0 0 1-175.786666-1.706667A95.573333 95.573333 0 0 1 141.44 682.666667v-597.333334a94.506667 94.506667 0 0 1 34.346667-81.493333 149.333333 149.333333 0 0 1 85.333333-25.386667 189.653333 189.653333 0 0 1 90.24 24.32c42.666667 23.68 431.36 270.08 472.106667 298.666667 45.866667 34.986667 51.2 55.466667 51.2 84.693333l-21.333334 5.973334z m-29.226666-10.24c0-15.36 4.053333-20.053333-29.866667-44.8-40.533333-29.013333-422.613333-272.853333-465.28-296.533333-21.333333-11.946667-80.426667-35.84-129.92-1.28-10.24 7.466667-14.933333 20.266667-14.933333 46.293333V682.666667c0 26.24 5.76 39.253333 16.213333 46.506666A104.32 104.32 0 0 0 259.84 746.666667a154.24 154.24 0 0 0 70.186667-19.2c42.666667-23.466667 423.253333-267.946667 463.573333-297.173334 33.92-24.746667 30.293333-29.44 30.293333-44.8v-3.626666z"  horiz-adv-x="1024" />

    
    <glyph glyph-name="add_icon" unicode="&#58966;" d="M512 896c-282.32 0-512-229.68-512-512s229.68-512 512-512 512 229.68 512 512-229.68 512-512 512zM512-71.11c-250.94 0-455.11 204.17-455.11 455.11s204.17 455.11 455.11 455.11 455.11-204.17 455.11-455.11-204.17-455.11-455.11-455.11zM768 412.44h-227.56v227.56c0 15.71-12.735 28.445-28.445 28.445-15.71 0-28.445-12.735-28.445-28.445v-227.56h-227.55c-0 0-0 0-0 0-15.71 0-28.445-12.735-28.445-28.445 0-15.71 12.735-28.445 28.445-28.445 0 0 0 0 0 0h227.56v-227.55c0-15.71 12.735-28.445 28.445-28.445s28.445 12.735 28.445 28.445c0 0 0 0 0 0v227.56h227.55c15.71 0 28.445 12.735 28.445 28.445 0 15.71-12.735 28.445-28.445 28.445z"  horiz-adv-x="1024" />

    
    <glyph glyph-name="shipin" unicode="&#58958;" d="M179.796 526.829c-10.762 0-19.489-8.725-19.489-19.487 0-10.766 8.727-19.489 19.489-19.489 10.764 0 19.489 8.723 19.489 19.489 0 10.762-8.726 19.487-19.489 19.487z m769.18 57.106a19.409 19.409 0 0 1-19.888-0.743L705.996 435.827V546.32c0 43.053-34.904 77.953-77.955 77.953H140.818c-43.053 0-77.953-34.901-77.953-77.953v-389.776c0-43.055 34.901-77.955 77.953-77.955H628.04c43.051 0 77.955 34.901 77.955 77.955v93.93l222.94-149.59a19.454 19.454 0 0 1 19.964-0.877 19.47 19.47 0 0 1 10.239 17.15V566.826a19.473 19.473 0 0 1-10.162 17.109z m-281.96-180.688a19.547 19.547 0 0 1-0.4-3.903v-112.063c0-1.321 0.14-2.624 0.4-3.894v-126.845c0-21.527-17.452-38.98-38.976-38.98H140.818c-21.525 0-38.978 17.452-38.978 38.98V546.32c0 21.525 17.452 38.978 38.978 38.978H628.04c21.523 0 38.976-17.452 38.976-38.978v-143.073z m253.146-249.929L705.996 297.52v91.471l214.166 142.055v-377.728z"  horiz-adv-x="1024" />

    
    <glyph glyph-name="wangluo" unicode="&#58923;" d="M260.003 590.476a516.236 516.236 0 0 1 93.603-41.356 513.815 513.815 0 0 1-26.764-141.847H187.345a324.19 324.19 0 0 0 72.658 183.203z m175.802 110.033a519.261 519.261 0 0 1-65.14-107.985 470.877 470.877 0 0 0-77.01 32.814 324.724 324.724 0 0 0 142.15 75.171z m294.516-75.17a469.178 469.178 0 0 0-77.009-32.815 519.261 519.261 0 0 1-65.14 107.985c53.876-12.94 102.4-39.191 142.15-75.17z m33.653-34.863a324.19 324.19 0 0 0 72.68-183.203h-139.45a512.977 512.977 0 0 1-26.81 141.847 516.236 516.236 0 0 1 93.603 41.356z m0-412.952a516.236 516.236 0 0 1-93.603 41.356 512.652 512.652 0 0 1 26.81 141.847h139.45a324.12 324.12 0 0 0-72.657-183.203zM653.312 175.5c26.81-8.681 52.55-19.712 77.033-32.815a324.608 324.608 0 0 0-142.173-75.17A518.656 518.656 0 0 1 653.335 175.5z m-164.585 21.69v-120.32a469.364 469.364 0 0 0-72.331 110.708 467.55 467.55 0 0 0 72.331 9.612z m0 163.537v-117.062a512.116 512.116 0 0 1-90.065-12.334 463.546 463.546 0 0 0-25.298 129.396h115.363z m-72.331 219.718a469.713 469.713 0 0 0 72.331 110.708v-120.32a459.217 459.217 0 0 0-72.331 9.612z m72.331-56.087v-117.085h-115.34c2.328 45.149 10.962 88.552 25.252 129.396 29.16-6.702 59.252-10.892 90.088-12.334z m46.546 46.475v120.32a468.899 468.899 0 0 0 72.308-110.708c-23.505-5.027-47.64-8.332-72.308-9.612z m0-163.56V524.335a509.975 509.975 0 0 1 90.065 12.357 464.407 464.407 0 0 0 25.274-129.396h-115.34z m72.308-219.695a468.55 468.55 0 0 0-72.308-110.731v120.32c24.669-1.304 48.803-4.585 72.308-9.589z m-72.308 56.087V360.727h115.34a464.407 464.407 0 0 0-25.275-129.396 512.14 512.14 0 0 1-90.065 12.334zM293.655 142.662a468.876 468.876 0 0 0 77.033 32.838 517.748 517.748 0 0 1 65.164-107.986 324.678 324.678 0 0 0-142.197 75.171z m-33.652 34.862a324.12 324.12 0 0 0-72.658 183.203H326.82c2.327-49.431 11.497-97.024 26.787-141.847a516.236 516.236 0 0 1-93.603-41.356z m543.465-24.855A370.572 370.572 0 0 1 884.364 384c0 104.518-43.195 198.819-112.524 266.473A370.967 370.967 0 0 1 512 756.363a370.967 370.967 0 0 1-259.84-105.89c-11.287-11.032-21.807-22.784-31.65-35.142A370.502 370.502 0 0 1 139.635 384c0-205.638 166.703-372.364 372.364-372.364a370.967 370.967 0 0 1 259.817 105.915h0.023a373.993 373.993 0 0 1 31.65 35.141z"  horiz-adv-x="1024" />

    
    <glyph glyph-name="xiaoxi2" unicode="&#58939;" d="M841.5 705.2H181.1c-64.9 0-117.7-51.9-117.7-115.6v-409.7c0-63.7 52.8-115.6 117.7-115.6h660.4c64.9 0 117.7 51.9 117.7 115.6V589.6c0 63.7-52.8 115.6-117.7 115.6zM620 400.5l284.1 227.6c7.1-11.2 11.3-24.4 11.3-38.5v-409.7c0-13-3.5-25.2-9.6-35.8L620 400.5z m221.5 261.7c10.2 0 20-2.1 28.8-5.8L511.7 369.2 152.8 656.6c8.7 3.6 18.3 5.6 28.3 5.6h660.4zM117.1 143.7c-6.3 10.7-9.9 23-9.9 36.2V589.6c0 14.3 4.2 27.6 11.5 38.9l284.6-228-286.2-256.8z m64-36.4c-11.4 0-22.2 2.6-31.9 7.1L437.6 373l54.4-43.6 1.1-1.1 1.2-1.2c4.7-4.5 10.9-6.8 17.1-6.8 5.4 0 10.9 1.8 15.4 5.4l59 47.2 288.1-258.4c-9.8-4.7-20.7-7.3-32.3-7.3H181.1z"  horiz-adv-x="1024" />

    
    <glyph glyph-name="dingwei1" unicode="&#58924;" d="M156.92664587251357 436.0774247714765c0-198.8410785185185 336.1361091090963-506.57131945276046 350.3390425492544-520.7742528929184 4.734311578232098-4.734311578232098 9.468623156464195-7.101466720079011 16.57008987654321-7.101466720079011s11.83577829831111 2.3671551418469137 16.57008987654321 7.101466720079011c14.202934734696296 14.202934734696296 350.3390425492544 321.9331743743999 350.33904384379264 520.7742528929184 0 73.38182622625185-21.304401454775306 142.02934216880988-61.54604922247901 203.57539009675062-7.101466720079011 11.83577829831111-21.304401454775306 14.202934734696296-33.14017975308642 7.101468014617283-11.83577829831111-7.101466720079011-14.202934734696296-21.304401454775306-7.101466720079011-33.14017975308642 35.50733489493334-52.07742477147655 54.44458120786173-113.62347399395556 54.44458120786173-177.53667835828145 0-153.865120467121-253.28565972638023-407.15078019350125-319.5660192325531-471.06398326328883C457.55541879213825 31.293801014360497 204.26975906575802 282.212305598894 204.26975906575802 436.0774247714765c0 175.16952192189632 144.39649731065677 319.5660192325531 319.5660192325531 319.5660192325531 73.38182622625185 0 144.39649731065677-26.038713033007408 201.2082349549037-71.01467108440494 9.468623156464195-9.468623156464195 26.038713033007408-7.101466720079011 33.14017975308642 2.3671564363851854 7.101466720079011 9.468623156464195 7.101466720079011 26.038713033007408-2.3671564363851854 33.14017975308642-66.28035950617284 52.07742477147655-146.76365374704199 82.85044938271605-231.98125827160493 82.85044938271605C322.6275446379457 802.9865584918124 156.92664587251357 639.6528148682271 156.92664587251357 436.0774247714765zM374.70496940942223 417.1401797530864c0-82.85044938271605 66.28035950617284-149.1308088888889 149.1308088888889-149.1308088888889s149.1308088888889 66.28035950617284 149.1308088888889 149.1308088888889-66.28035950617284 149.1308088888889-149.1308088888889 149.1308088888889-149.1308088888889-66.28035950617284-149.1308088888889-149.1308088888889z m250.9185045845333 0c0-56.81173634970864-44.97595805139753-101.78769440110615-101.78769569564446-101.78769440110615s-101.78769440110615 44.97595805139753-101.78769440110615 101.78769440110615 44.97595805139753 101.78769440110615 101.78769440110615 101.78769440110615 101.78769440110615-44.97595805139753 101.78769569564446-101.78769440110615z"  horiz-adv-x="1024" />

    
    <glyph glyph-name="shengyin" unicode="&#58961;" d="M758.3321402026667 474.9875476100741c-6.657625050074073 11.096042154666666-13.315251313777777 22.19208430933333-22.19208552296296 31.06891851851852l-6.657625050074073 6.657625050074073c-8.876834209185184 8.876834209185184-22.19208430933333 8.876834209185184-31.06891851851852 0s-8.876834209185184-22.19208430933333 0-31.06891851851852l6.657625050074073-6.657625050074073c6.657625050074073-6.657625050074073 11.096042154666666-13.315251313777777 15.53445925925926-22.19208552296296l2.219209159111111-2.2192079454814815c42.164960673185185-64.35704498251852 33.288126464-122.05646612859258-26.630501413925924-186.4135111111111-8.876834209185184-8.876834209185184-8.876834209185184-22.19208430933333 0-31.06891851851852 4.438417104592592-4.438417104592592 8.876834209185184-6.657625050074073 15.53445925925926-6.657625050074073 6.657625050074073 0 11.096042154666666 2.2192079454814815 15.53445925925926 6.657625050074073 73.2338791917037 79.89150424177778 84.32992134637037 162.00221764266664 31.06891851851852 241.89372309807408zM836.0044364989628 603.7016375751111c-6.657625050074073 8.876834209185184-13.315251313777777 15.53445925925926-19.97287636385185 19.97287636385185-8.876834209185184 8.876834209185184-22.19208430933333 8.876834209185184-31.06891851851852 0-8.876834209185184-8.876834209185184-8.876834209185184-22.19208430933333 0-31.06891851851852l4.438417104592592-4.438417104592592 11.096042154666666-11.096042154666666c11.096042154666666-15.53445925925926 24.411293468444445-28.849710573037036 35.50733562311111-46.60337777777777 84.32992134637037-126.49488201955555 66.57625414162963-248.55134814814815-51.041794882370375-370.60781306311105-8.876834209185184-8.876834209185184-8.876834209185184-22.19208430933333 0-31.06891851851852 4.438417104592592-4.438417104592592 8.876834209185184-6.657625050074073 15.53445925925926-6.657626263703703 6.657625050074073 0 11.096042154666666 2.2192079454814815 15.53445925925926 6.657626263703703 130.9332991241481 135.37171622874072 150.90617548799997 281.83947461214814 57.69941993244444 423.86881710459255-13.315251313777777 19.97287636385185-26.630501413925924 35.50733562311111-37.72654356859259 51.04179366874074zM538.6305014139259 752.3886051176296c-24.411293468444445 11.096042154666666-55.48021198696296 4.438417104592592-79.89150424177778-17.75366720474074L290.0791532657778 590.3863874749629h-79.89150424177778c-59.91862909155555 0-108.74121481481481-51.041794882370375-108.74121481481481-108.74121481481481v-217.48242962962962c0-62.13783703703704 48.822585723259266-108.74121481481481 108.74121481481481-108.74121481481481h68.7954620871111l179.75588606103702-142.02934249244444c17.75366720474074-13.315251313777777 37.72654356859259-19.97287636385185 55.480210773333326-19.972875150222222 8.876834209185184 0 19.97287636385185 2.2192079454814815 26.630502627555554 6.657625050074073 24.411293468444445 11.096042154666666 37.72654356859259 37.72654356859259 37.72654356859259 73.2338791917037V676.9355179804444c0 35.50733562311111-13.315251313777777 64.35704498251852-39.9457527277037 75.45308713718518zM534.1920843093333 71.0916068693333c0-17.75366720474074-4.438417104592592-28.849710573037036-13.315250100148146-33.288127677629625-8.876834209185184-4.438417104592592-22.19208430933333 0-35.50733562311111 8.876834209185184l-190.8519282157037 150.90617548799997h-84.32992134637037c-35.50733562311111 0-64.35704498251852 28.849710573037036-64.35704619614813 64.35704498251852v217.48242962962962c0 35.50733562311111 28.849710573037036 64.35704498251852 64.35704619614813 64.35704619614813h95.42596350103702l179.75588606103702 153.1253834334815c13.315251313777777 11.096042154666666 24.411293468444445 15.53445925925926 33.288126464 11.096043368296296 8.876834209185184-4.438417104592592 15.53445925925926-17.75366720474074 15.53445925925926-35.50733562311111v-601.4054940065184z"  horiz-adv-x="1024" />

    
    <glyph glyph-name="yuyin" unicode="&#58963;" d="M499.3751698151348 166.85291723013268h50.49932073946073c100.99864285976228 0 184.32252318454513 83.32388032478289 184.322524565386 184.32252318454513v328.2455903298581c0 10.099864700228473 0 20.19972801961613-2.524966865477531 30.299592719844604-2.524965484636708 12.624830184865182-15.149797050342713 22.72469488509366-30.299592719844604 20.199729400456945-12.624830184865182-2.524965484636708-22.72469488509366-15.149797050342713-20.19972801961613-30.299592719844604 0-7.574897834750944 2.524965484636708-15.149797050342713 2.524965484636708-22.72469488509366v-328.2455903298581c0-73.2240156245544-60.59918543968921-133.8232024450844-133.8232024450844-133.8232024450844h-50.49932073946073c-73.2240156245544 0-133.8232024450844 60.59918543968921-133.8232024450844 133.8232024450844v328.2455903298581c0 73.2240156245544 60.59918543968921 133.8232024450844 133.8232024450844 133.82320106424362h50.49932073946073c30.299592719844604 0 60.59918543968921-10.099864700228473 85.8488471902604-30.299592719844604 10.099864700228473-10.099864700228473 27.774627235207902-7.574897834750944 35.34952506995885 2.524966865477531s7.574897834750944 27.774627235207902-2.524965484636708 35.34952506995885c-32.82455958532214 27.774627235207902-75.74898249003193 42.92442290470979-118.67340677558252 42.92442290470979h-50.49932073946073c-100.99864285976228 0-184.32252318454513-83.32388032478289-184.32252318454513-184.32252318454513v-328.2455903298581c0-100.99864285976228 83.32388032478289-181.7975576999084 184.32252318454513-181.7975576999084zM860.4453183494741 426.92442290470984c-15.149797050342713 0-25.249660369730364-10.099864700228473-25.249660369730364-25.249660369730364 0-171.69769299967996-138.87313479519864-310.57082779487865-310.57082779487865-310.57082779487865S214.05400238998652 232.5020350199361 214.05400238998652 401.6747625349794c0 15.149797050342713-10.099864700228473 25.249660369730364-25.249660369730364 25.249660369730364s-25.249660369730364-10.099864700228473-25.249660369730364-25.249660369730364c0-189.37245553465942 148.97299811458626-345.9203528648375 335.82048816460895-358.5451830497027v-121.19837087937842c0-15.149797050342713 10.099864700228473-25.249660369730364 25.249660369730364-25.24966175057119s25.249660369730364 10.099864700228473 25.249660369730364 25.24966175057119v121.19837087937842c186.84749005002274 12.624830184865182 335.82048816460895 169.17272751504333 335.82048816460895 358.5451830497027 0 15.149797050342713-12.624830184865182 25.249660369730364-25.249660369730364 25.249660369730364z"  horiz-adv-x="1024" />

    
    <glyph glyph-name="baojingshezhi" unicode="&#58902;" d="M703.015739-87.252958l16.043149 17.097778c7.318488-4.186559 17.545197-7.318488 22.4668-9.619498v-24.224516c0-7.606114 8.053533-13.806056 15.691606-13.806056h27.484279c7.638073 0 15.755523 6.167984 15.755523 13.806056v24.256475c4.889645 2.301009 15.116353 5.496856 22.402883 9.683414l16.586443-17.161695a13.51843 13.51843 0 0 1 19.238995 0l19.430746 19.526622a13.806056 13.806056 0 0 1-0.095875 19.526621l-17.097778 16.107066c4.122642 7.318488 7.318488 17.48128 9.619497 22.402883h24.192558c7.638073 0 13.806056 8.053533 13.806056 15.723564v27.580155c0 7.670031-6.136025 15.659647-13.806056 15.659647h-24.192558c-2.269051 4.921603-5.528814 15.116353-9.683414 22.4668l17.161695 16.618402a13.614306 13.614306 0 0 1 0 19.238995l-19.526621 19.398788a13.614306 13.614306 0 0 1-19.462705-0.127834l-16.202941-17.033862c-7.222613 4.186559-17.449321 7.318488-22.338967 9.619498v24.224516c0 7.606114-8.11745 13.74214-15.755522 13.742139h-27.484279c-7.638073 0-15.691606-6.104067-15.691606-13.742139v-24.224516c-4.921603-2.301009-15.148312-5.560773-22.4668-9.683414l-16.586443 17.097778a13.51843 13.51843 0 0 1-19.238996 0l-19.398787-19.526622a13.678223 13.678223 0 0 1 0.095875-19.462704l17.06582-16.170983c-4.122642-7.318488-7.318488-17.48128-9.619498-22.402883h-24.160598c-7.638073 0-13.806056-7.989616-13.806057-15.659648v-27.580154c0-7.606114 6.136025-15.723564 13.806057-15.723564h24.160598c2.269051-4.921603 5.528814-15.116353 9.683415-22.402884l-17.129737-16.618401a13.678223 13.678223 0 0 1 0-19.334871l19.526622-19.33487c5.369022-5.305105 14.061724-5.305105 19.462704 0.127834h0.063917v-0.063917z m67.975653 169.156149a62.063337 62.063337 0 1 0-62.063337-62.095295c0 34.259473 27.739947 62.095296 62.063337 62.095295zM710.90948 610.176601c17.449321-15.340063 44.006805-13.646264 59.378826 3.803057l82.037377 93.254798a42.057339 42.057339 0 0 1-63.117966 55.607728l-82.133253-93.22284a41.993422 41.993422 0 0 1-9.971041-34.163598c1.438131-9.491664 6.04015-18.440034 13.806057-25.279145z m-198.270311-14.668935h-3.675223V595.539625a258.352223 258.352223 0 0 1-258.320264-258.320265v-317.411464h330.897936a230.676193 230.676193 0 0 0 189.449774 201.242448v116.169016a258.352223 258.352223 0 0 1-258.352223 258.288306z m186.381762-287.817927a22.211132 22.211132 0 0 0-22.179174 22.147216 162.540748 162.540748 0 0 1-162.348997 162.348997h-3.675223a22.115257 22.115257 0 1 0 0 44.262473h3.675223c113.963883 0 206.61147-92.679546 206.61147-206.61147 0-12.240092-9.907124-22.147216-22.083299-22.147216z m270.27273 185.550842l-122.880294-18.695701a42.057339 42.057339 0 1 1 12.655552-83.187882l122.816377 18.695702a42.057339 42.057339 0 1 1-12.591635 83.187881zM181.165981 723.053896l77.59515-97.025897a42.057339 42.057339 0 1 1 65.706602 52.571673L246.872583 775.593611a41.993422 41.993422 0 0 1-59.123159 6.583443 41.961463 41.961463 0 0 1-6.583443-59.123158z m38.254281-729.036481l-32.725467-99.678449h416.163118a229.461771 229.461771 0 0 0-22.88226 99.678449H219.420262z m101.691833-81.14254H214.658451l20.581251 62.734465h148.606857l-62.734464-62.734465z m154.327422 809.15635a42.089297 42.089297 0 0 1 83.699217 5.40098l-0.351543 124.22255a42.057339 42.057339 0 1 1-84.114677 1.949466l0.287626-124.222549c-0.031958-2.49276 0.127834-4.953562 0.479377-7.350447z m-266.373797-281.234483a42.121256 42.121256 0 0 1-33.013093 49.567578l-121.793707 24.448225a42.089297 42.089297 0 0 1-16.554484-82.516754l121.825665-24.480184a42.057339 42.057339 0 0 1 49.535619 32.981135z"  horiz-adv-x="1024" />

    
    <glyph glyph-name="dianhua" unicode="&#59177;" d="M418.368 551.808l-88.416-89.92C376 359.68 473.632 245.856 586.912 207.584l76.416 76.192s181.184-31.616 221.92-51.392c35.296-17.12 46.976-55.072 41.44-101.888-5.92-50.304-71.84-161.248-190.624-162.464-118.784-1.216-293.696 88.256-419.008 220.288C191.744 320.384 80 487.712 97.92 629.856c17.888 142.08 141.696 167.52 172.672 169.792 31.296 2.304 56.16-6.88 75.04-30.272 24.32-30.144 72.768-217.568 72.768-217.568z"  horiz-adv-x="1024" />

    
    <glyph glyph-name="xiuxiyixia" unicode="&#59027;" d="M505.856 658.5344c0-11.485867-7.406933-21.9136-18.619733-31.095467-13.960533-11.434667-2.525867-34.218667 15.0528-30.122666 51.387733 11.9808 99.362133 33.092267 99.362133 70.229333 0 79.940267-243.694933 72.328533-243.694933 137.1136 0 23.108267 21.8112 42.820267 49.851733 58.606933 17.2544 9.710933 8.192 35.908267-11.281067 32.4096-73.6768-13.2608-150.596267-41.386667-150.596266-101.102933 0-114.602667 259.925333-85.1456 259.925333-136.0384zM832.631467-31.778133H47.240533c-13.4144 0-24.285867-10.871467-24.285866-24.285867 0-7.4752 3.345067-14.5408 9.250133-19.114667C55.978667-93.5936 140.4416-128 439.944533-128c299.485867 0 383.9488 34.4064 407.7056 52.821333a24.064 24.064 0 0 1 9.250134 19.114667c0 13.4144-10.871467 24.285867-24.2688 24.285867zM996.795733 431.9232c-17.220267 55.159467-53.828267 96.802133-103.082666 117.1968a171.2128 171.2128 0 0 1-62.446934 13.0048H51.0464a34.133333 34.133333 0 1 1 0-68.266667l779.434667 0.017067a102.638933 102.638933 0 0 0 37.0688-7.799467c30.242133-12.526933 52.992-38.980267 64.068266-74.478933 11.776-37.717333 9.0624-80.674133-7.6288-120.9344-29.3376-70.7584-94.1056-113.3568-153.156266-105.0112 35.874133 57.719467 58.845867 125.986133 64.477866 201.352533 1.467733 19.712-14.404267 36.488533-34.167466 36.488534H52.445867c-19.797333 0-35.652267-16.827733-34.167467-36.573867 17.066667-228.795733 193.450667-392.516267 408.5248-392.516267 118.4256 0 225.041067 49.698133 299.8784 132.5056a170.257067 170.257067 0 0 1 58.402133-10.4448c81.851733 0 164.232533 56.951467 201.984 148.053334 22.801067 55.005867 26.248533 114.449067 9.728 167.406933z"  horiz-adv-x="1024" />

    
    <glyph glyph-name="user-group" unicode="&#58897;" d="M337.73568 883.72736a191.6416 191.6416 0 0 0 45.40416-5.4784 223.58528 223.58528 0 0 0 42.48064-14.72512 192.06656 192.06656 0 0 0 35.34848-21.04832 127.47776 127.47776 0 0 0 23.99744-23.5776 185.8304 185.8304 0 0 0 30.16192-59.3152 436.13696 436.13696 0 0 0 6.58432-25.30816c-24.27392-9.79968-30.25408-14.91968-46.73024-26.68544-13.74208-12.65152-22.5024-20.71552-33.73056-38.30272-8.45312-10.5728-20.13184-36.8128-24.97024-55.552-2.176-8.2688-9.88672-39.81824-11.35616-58.05056-1.04448-8.97024-4.29056-31.36512-3.24096-63.9488-4.56192-6.0416-7.65952-11.38176-10.37824-17.67424-2.28352-6.71744-3.1744-12.17024-4.21888-20.20864-0.85504-9.856 0.4352-13.89568 3.56864-25.94304 4.06528-12.38016 3.48672-10.9824 9.40544-21.89312 8.57088-12.74368 15.58016-15.1808 21.40672-17.67424 2.53952-9.14432 7.7824-26.91584 7.7824-26.91584s4.864-12.03712 8.7552-21.46304c5.66784-12.12416 11.02848-16.4096 11.02848-16.4096s13.0048-11.77088 24.64256-23.15264c3.36896-4.04992 12.2368-13.99808 12.6464-30.71488 1.29536-13.184 0.9728-10.95168 0.9728-24.4224 0.0512-10.5472-1.00352-11.84768-4.21888-21.04832-3.2-6.78912-5.48864-12.38016-12.6464-20.20352-5.9648-6.73792-13.44-13.62944-25.29792-21.04832-10.42432-6.96832-25.46688-15.60576-48.9728-21.89312-18.3296-4.7104-31.80032-9.56416-53.50912-17.24928-25.25184-10.85952-27.21792-13.14816-41.56416-23.11168-26.21952-20.87424-27.03872-52.35712-26.86464-50.37568s-2.78016-19.01056-3.61984-27.03872c-16.0512 1.024-32.384 2.28864-49.3056 3.82976a2403.26144 2403.26144 0 0 0-64.5376 6.74816 1468.20096 1468.20096 0 0 0-58.37312 7.97696c-17.5104 2.7904-32.10752 5.61152-44.43136 8.43264a58.37312 58.37312 0 0 0-22.70208 8.43264 74.06592 74.06592 0 0 0-12.32384 41.22112 333.73184 333.73184 0 0 0 3.56864 89.216 70.912 70.912 0 0 0 23.3472 47.54432 152.14592 152.14592 0 0 0 45.07648 25.94304 585.8304 585.8304 0 0 0 53.50912 17.24928c17.408 4.59264 33.9456 11.9808 48.9728 21.89312a115.77344 115.77344 0 0 1 25.29792 21.04832 69.05856 69.05856 0 0 1 12.6464 20.20352c2.85184 6.65088 4.28544 13.81888 4.21888 21.04832a344.5248 344.5248 0 0 1-0.9728 24.4224 47.18592 47.18592 0 0 1-12.6464 30.71488 436.51072 436.51072 0 0 1-24.64256 23.15264 51.90656 51.90656 0 0 0-11.02848 16.4096c-2.9184 7.00416-5.8368 14.1568-8.7552 21.46304a843.40736 843.40736 0 0 0-7.7824 26.91584 35.28192 35.28192 0 0 0-11.02336 5.90336 66.01216 66.01216 0 0 0-10.37824 11.77088 70.43072 70.43072 0 0 0-9.40544 21.89312 59.01312 59.01312 0 0 0-3.56864 25.94304 81.92 81.92 0 0 0 4.21888 20.20864 55.90016 55.90016 0 0 0 10.37824 17.67424 421.74976 421.74976 0 0 0 3.24096 63.9488 392.68864 392.68864 0 0 0 11.35616 58.05056 181.0176 181.0176 0 0 0 24.97024 55.552 155.6736 155.6736 0 0 0 33.73056 38.30272 168.15616 168.15616 0 0 0 37.94432 23.15264 157.69088 157.69088 0 0 0 38.91712 11.35104 248.88832 248.88832 0 0 0 37.62176 2.94912v-0.13312z m0 0M677.78048 725.71904a191.6416 191.6416 0 0 0 45.40416-5.4784 223.58528 223.58528 0 0 0 42.48064-14.72512 192.06656 192.06656 0 0 0 35.34848-21.04832 127.47776 127.47776 0 0 0 23.99744-23.5776 185.8304 185.8304 0 0 0 30.16192-59.3152 433.79712 433.79712 0 0 0 13.29664-61.84448c2.87232-22.58432 4.28032-45.33248 4.21376-68.10112a32.08704 32.08704 0 0 0 8.76032-10.92608c2.24256-4.83328 3.87072-9.91744 4.864-15.14496 1.39776-7.49056 1.61792-15.15008 0.65024-22.70208a92.76928 92.76928 0 0 0-6.8096-28.18048 58.5984 58.5984 0 0 0-11.6736-16.4096 38.12864 38.12864 0 0 0-14.91968-9.2416 839.552 839.552 0 0 0-7.7824-26.91584c-2.92352-7.296-5.84192-14.43328-9.08288-21.46304a58.43968 58.43968 0 0 0-11.67872-16.4096 820.1472 820.1472 0 0 1-24.64256-21.46816 52.22912 52.22912 0 0 1-12.6464-29.87008 113.00864 113.00864 0 0 1-1.62304-25.6512 77.91104 77.91104 0 0 1 6.8096-25.94816 81.54112 81.54112 0 0 1 18.16064-24.8064 114.50368 114.50368 0 0 1 34.70336-21.04832 362.74176 362.74176 0 0 1 43.13088-15.14496 467.15904 467.15904 0 0 0 45.40416-15.56992 161.49504 161.49504 0 0 0 39.23968-21.89312 70.97856 70.97856 0 0 0 24.32512-35.67104 188.61056 188.61056 0 0 0 5.8368-33.23904c1.29536-13.184 1.9456-26.51648 1.9456-39.98208a232.2432 232.2432 0 0 0-2.9184-37.87776 75.25376 75.25376 0 0 0-8.10496-26.91584 46.53568 46.53568 0 0 0-22.70208-11.776 439.97184 439.97184 0 0 0-45.7216-11.35104c-18.48832-3.6352-38.58944-6.87104-61.29664-9.728a1752.58624 1752.58624 0 0 0-67.45088-7.168 2052.4544 2052.4544 0 0 0-65.5104-4.63872c-20.75648-1.13152-38.91712-1.68448-54.15936-1.68448-15.24224 0-33.08032 0.55296-53.50912 1.68448-20.43392 1.13664-41.1904 2.6624-62.91456 4.63872a2403.26144 2403.26144 0 0 0-64.5376 6.74816 1468.20096 1468.20096 0 0 0-58.37312 7.97696c-17.5104 2.7904-32.10752 5.61152-44.43136 8.43264a58.37312 58.37312 0 0 0-22.70208 8.43264 74.06592 74.06592 0 0 0-12.32384 41.22112 333.73184 333.73184 0 0 0 3.56864 89.216 70.912 70.912 0 0 0 23.3472 47.54432 152.14592 152.14592 0 0 0 45.07648 25.94304 585.8304 585.8304 0 0 0 53.50912 17.24928c17.408 4.59264 33.9456 11.9808 48.9728 21.89312a115.77344 115.77344 0 0 1 25.29792 21.04832 69.05856 69.05856 0 0 1 12.6464 20.20352c2.85184 6.65088 4.28544 13.81888 4.21888 21.04832a344.5248 344.5248 0 0 1-0.9728 24.4224 47.18592 47.18592 0 0 1-12.6464 30.71488 436.51072 436.51072 0 0 1-24.64256 23.15264 51.90656 51.90656 0 0 0-11.02848 16.4096c-2.9184 7.00416-5.8368 14.1568-8.7552 21.46304a843.40736 843.40736 0 0 0-7.7824 26.91584 35.28192 35.28192 0 0 0-11.02336 5.90336 66.01216 66.01216 0 0 0-10.37824 11.77088 70.43072 70.43072 0 0 0-9.40544 21.89312 59.01312 59.01312 0 0 0-3.56864 25.94304 81.92 81.92 0 0 0 4.21888 20.20864 55.90016 55.90016 0 0 0 10.37824 17.67424 421.74976 421.74976 0 0 0 3.24096 63.9488 392.68864 392.68864 0 0 0 11.35616 58.05056 181.0176 181.0176 0 0 0 24.97024 55.552 155.6736 155.6736 0 0 0 33.73056 38.30272 168.15616 168.15616 0 0 0 37.94432 23.15264 157.69088 157.69088 0 0 0 38.91712 11.35104 248.88832 248.88832 0 0 0 37.62176 2.94912v-0.14336z m0 0"  horiz-adv-x="1024" />

    
    <glyph glyph-name="taiyang" unicode="&#58978;" d="M512 384.6m-212 0a212 212 0 1 1 424 0 212 212 0 1 1-424 0ZM512 384.6m-198.3 0a198.3 198.3 0 1 1 396.6 0 198.3 198.3 0 1 1-396.6 0ZM511.7 765.8c12.9 0.2 24.2-11.3 24.5-24.3l0.4-79.6c0.2-12.9-11.3-24.2-24.3-24.5-12.9-0.2-24.2 11.3-24.5 24.3l-0.4 79.6c0.9 14.9 11.4 24.3 24.3 24.5zM901.5 386c-0.2-12.9-9.6-23.4-24.5-24.3l-79.6 0.4c-12.9 0.2-24.5 11.5-24.3 24.5 0.2 12.9 11.5 24.5 24.5 24.3l79.6-0.4c12.9-0.3 24.5-11.6 24.3-24.5zM250.9 386c-0.2-12.9-9.6-23.4-24.5-24.3l-79.6 0.4c-12.9 0.2-24.5 11.5-24.3 24.5 0.2 12.9 11.5 24.5 24.5 24.3l79.6-0.4c12.9-0.3 24.5-11.6 24.3-24.5zM512.3 2.2c-12.9-0.2-24.2 11.3-24.5 24.3l-0.4 79.6c-0.2 12.9 11.3 24.2 24.3 24.5 12.9 0.2 24.2-11.3 24.5-24.3l0.4-79.6c-0.9-14.9-11.4-24.3-24.3-24.5zM781.2 653.7c9.3-9 9.1-25.1 0.1-34.5l-56-56.5c-9-9.3-25.1-9.1-34.5-0.1-9.3 9-9.1 25.1-0.1 34.5l56 56.5c11.1 9.9 25.1 9.1 34.5 0.1zM788.2 109.5c-9.3-9-23.3-9.8-34.5 0.1l-56 56.5c-9 9.3-9.2 25.5 0.1 34.5 9.3 9 25.5 9.2 34.5-0.1l56-56.5c9-9.3 9.2-25.5-0.1-34.5zM328.1 569.6c-9.3-9-23.3-9.8-34.5 0.1l-56 56.5c-9 9.3-9.2 25.5 0.1 34.5 9.3 9 25.5 9.2 34.5-0.1l56-56.5c9-9.4 9.3-25.5-0.1-34.5zM241.6 113.4c-9.3 9-9.1 25.1-0.1 34.5l56 56.5c9 9.3 25.1 9.1 34.5 0.1 9.3-9 9.1-25.1 0.1-34.5l-56-56.5c-11.1-9.9-25.2-9.1-34.5-0.1z"  horiz-adv-x="1024" />

    
    <glyph glyph-name="sousuo" unicode="&#58898;" d="M951.342-11.608L797.186 153.068l2.687 3.234c60.491 72.898 93.804 165.932 93.804 261.975 0 227.567-185.87 412.708-414.335 412.708C250.872 830.985 65 645.614 65 417.763c0-227.842 185.872-413.209 414.342-413.209 59.495 0 117.158 12.417 171.389 36.901 7.575 3.557 12.779 9.176 15.444 16.695 2.592 7.331 2.283 15.334-0.87 22.523-3.553 7.531-9.192 12.727-16.729 15.38-7.906 2.779-15.76 2.527-22.52-0.834-46.901-21.027-96.409-31.67-147.231-31.67-195.565 0-354.673 158.672-354.673 353.703 0 195.034 159.107 353.71 354.673 353.71 195.567 0 354.674-158.676 354.674-353.71 0-91.519-35.077-178.621-98.771-245.264-5.442-5.88-8.452-13.448-8.452-21.289 0-7.628 3.326-15.147 9.366-21.173 0.452-0.281 0.747-0.481 0.985-0.649h3.504v-3.515c0.1-0.213 0.185-0.43 0.254-0.649 0.322-0.62 0.558-0.989 0.968-1.402l165.763-177.076c5.453-5.861 13.332-9.218 21.624-9.218 7.668 0 14.701 2.746 20.345 7.945 5.755 5.292 9.312 12.914 9.76 20.911 0.827 8.218-1.701 15.76-7.503 22.519z"  horiz-adv-x="1024" />

    
    <glyph glyph-name="navicon-yhxy" unicode="&#58999;" d="M885.76-112.63999999999999H153.6c-14.336 0-25.6 11.264-25.6 25.6V855.04c0 14.336 11.264 25.6 25.6 25.6h732.16c14.336 0 25.6-11.264 25.6-25.6v-942.08c0-14.336-11.264-25.6-25.6-25.6zM179.2-61.440000000000055h680.96V829.44H179.2v-890.88zM640 471.04c-4.096 0-8.704 1.024-12.8 3.072L522.24 534.0160000000001 417.28 474.112c-7.68-4.608-17.408-4.608-25.6 0-8.192 5.12-12.8 13.312-12.8 22.528V855.04c0 14.336 11.264 25.6 25.6 25.6h235.52c14.336 0 25.6-11.264 25.6-25.6v-358.4c0-9.216-4.608-17.408-12.8-22.016-4.096-2.56-8.192-3.584-12.8-3.584z m-117.76 117.76c4.096 0 8.704-1.024 12.8-3.072l79.36-45.056V829.44H430.08v-288.768l79.36 45.056c4.096 2.048 8.704 3.072 12.8 3.072zM721.92 266.24H312.32c-14.336 0-25.6 11.264-25.6 25.6s11.264 25.6 25.6 25.6h409.6c14.336 0 25.6-11.264 25.6-25.6s-11.264-25.6-25.6-25.6zM517.12 133.12H312.32c-14.336 0-25.6 11.264-25.6 25.6s11.264 25.6 25.6 25.6h204.8c14.336 0 25.6-11.264 25.6-25.6s-11.264-25.6-25.6-25.6zM704-5.1200000000000045c-55.296 0-99.84 44.544-99.84 99.84s44.544 99.84 99.84 99.84 99.84-44.544 99.84-99.84-44.544-99.84-99.84-99.84z m0 148.48c-26.624 0-48.64-22.016-48.64-48.64s22.016-48.64 48.64-48.64 48.64 22.016 48.64 48.64-22.016 48.64-48.64 48.64z"  horiz-adv-x="1030" />

    
    <glyph glyph-name="icon-test" unicode="&#58905;" d="M887.134-30.87099999999998H136.866c-41.074 0-74.491 33.417-74.491 74.491V724.379c0 41.074 33.417 74.491 74.491 74.491h750.268c41.074 0 74.491-33.417 74.491-74.491v-272.623c0-8.284-6.716-15-15-15s-15 6.716-15 15V724.379c0 24.532-19.958 44.491-44.491 44.491H136.866c-24.532 0-44.491-19.959-44.491-44.491V43.620000000000005c0-24.532 19.958-44.491 44.491-44.491h750.268c24.532 0 44.491 19.959 44.491 44.491V249.09000000000003c0 8.284 6.716 15 15 15s15-6.716 15-15v-205.47c0-41.074-33.417-74.491-74.491-74.491zM946.625 289.756c-8.284 0-15 6.716-15 15v28.668c0 8.284 6.716 15 15 15s15-6.716 15-15v-28.668c0-8.284-6.716-15-15-15zM946.625 361.423c-8.284 0-15 6.716-15 15v22.666c0 8.284 6.716 15 15 15s15-6.716 15-15v-22.666c0-8.284-6.716-15-15-15zM939.394 528H77.375c-8.284 0-15 6.716-15 15s6.716 15 15 15h862.019c8.284 0 15-6.716 15-15s-6.716-15-15-15zM417.294 156.90499999999997a14.999 14.999 0 0 0-15.001 15V390.62a14.999 14.999 0 0 0 19.16 14.411c1.971-0.568 48.822-14.173 96.507-34.82 28.486-12.335 51.341-24.659 67.928-36.63 24.102-17.395 35.818-34.508 35.818-52.318s-11.716-34.924-35.818-52.318c-16.587-11.971-39.442-24.295-67.928-36.63-47.685-20.647-94.536-34.252-96.507-34.82-1.367-0.397-2.767-0.59-4.159-0.59z m14.999 213.34v-177.962c17.948 5.831 46.11 15.581 73.982 27.663 81.313 35.249 85.431 57.262 85.431 61.316 0 4.062-4.13 26.112-85.667 61.418-27.83 12.052-55.863 21.756-73.746 27.565zM89.984 527.998c-2.73 0-5.493 0.745-7.975 2.307-7.011 4.412-9.118 13.673-4.706 20.685l146 232c4.412 7.013 13.673 9.117 20.685 4.706 7.011-4.412 9.118-13.673 4.706-20.685l-146-232c-2.851-4.531-7.726-7.013-12.71-7.013zM260.369 527.998c-2.73 0-5.493 0.745-7.975 2.307-7.011 4.412-9.118 13.673-4.706 20.685l146 232c4.412 7.013 13.673 9.117 20.685 4.706 7.011-4.412 9.118-13.673 4.706-20.685l-146-232c-2.851-4.531-7.726-7.013-12.71-7.013zM429.593 527.998c-2.73 0-5.493 0.745-7.975 2.307-7.011 4.412-9.118 13.673-4.706 20.685l146 232c4.412 7.013 13.674 9.117 20.685 4.706 7.012-4.412 9.119-13.673 4.706-20.685l-146-232c-2.851-4.531-7.726-7.013-12.71-7.013zM604.514 527.998c-2.73 0-5.494 0.745-7.975 2.307-7.012 4.412-9.119 13.673-4.706 20.685l146 232c4.413 7.013 13.673 9.117 20.685 4.706 7.012-4.412 9.119-13.673 4.706-20.685l-146-232c-2.851-4.531-7.726-7.013-12.71-7.013zM773.338 527.998c-2.73 0-5.494 0.745-7.975 2.307-7.012 4.412-9.119 13.673-4.706 20.685l146 232c4.412 7.013 13.674 9.117 20.685 4.706 7.012-4.412 9.119-13.673 4.706-20.685l-146-232c-2.851-4.531-7.726-7.013-12.71-7.013z"  horiz-adv-x="1024" />

    
    </font>
</defs>
</svg>
